<svg xmlns="http://www.w3.org/2000/svg" xmlns:xlink="http://www.w3.org/1999/xlink" width="604" height="394" viewBox="0 0 604 394" fill="none"><g opacity="1" transform="translate(0 0)  rotate(0 301.9990405872242 197)"><path id="green" fill-rule="evenodd" style="fill:#47F5CC" transform="translate(154.99808117444843 -105)  rotate(90 172 277)" opacity="1" d="M16,554L328,554C336.84,554 344,546.84 344,538L344,16C344,7.16 336.84,0 328,0L16,0C7.16,0 0,7.16 0,16L0,538C0,546.84 7.16,554 16,554Z " /><path id="blue" fill-rule="evenodd" style="fill:#0095FF" transform="translate(105 -55)  rotate(90 172 277)" opacity="0.5" d="M16,554L328,554C336.84,554 344,546.84 344,538L344,16C344,7.16 336.84,0 328,0L16,0C7.16,0 0,7.16 0,16L0,538C0,546.84 7.16,554 16,554Z " /><path id="文本 1" fill-rule="evenodd" style="fill:#FFFFFF" transform="translate(115 122)  rotate(0 176.92799999999997 86.044)" opacity="1" d="M28.91 32.34C33.52 48.8 39.2 64.09 39.2 64.09C52.14 49 65.37 32.34 65.37 32.34C78.6 15.68 88.79 0 88.79 0L110.54 0C95.84 19.99 79.77 40.08 79.77 40.08C63.7 60.17 45.28 81.34 45.28 81.34L32.34 135.83L13.33 135.83L26.26 81.34C18.62 60.76 12.05 40.08 12.05 40.08C5.49 19.4 0 0 0 0L20.58 0C24.3 15.88 28.91 32.34 28.91 32.34ZM327.4 93.49L316.22 93.49C317.79 80.16 319.85 66.74 319.85 66.74C321.91 53.31 325.83 36.85 325.83 36.85L334.65 0L353.86 0L345.04 37.04C343.86 41.75 341.8 49.29 341.8 49.29C339.74 56.84 337.29 64.88 337.29 64.88C334.84 72.91 332.2 80.65 332.2 80.65C329.55 88.4 327.4 93.49 327.4 93.49ZM207.09 172.09L215.52 136.81C215.52 136.81 217.48 137.2 220.03 137.4C220.03 137.4 222.58 137.59 224.73 137.59C224.73 137.59 242.57 137.59 255.6 131.71C255.6 131.71 268.64 125.83 277.16 116.03C277.16 116.03 285.69 106.23 289.8 93.59C289.8 93.59 293.92 80.95 293.92 67.42C293.92 67.42 293.92 59.58 291.67 53.02C291.67 53.02 289.41 46.45 284.9 41.65C284.9 41.65 280.4 36.85 273.44 34.1C273.44 34.1 266.48 31.36 256.88 31.36C256.88 31.36 248.64 31.36 238.94 33.12C238.94 33.12 229.24 34.89 221.01 38.22L188.86 172.09L207.09 172.09ZM180.48 32.93C180.48 32.93 173.42 31.75 168.13 31.75C168.13 31.75 150.29 31.75 136.96 37.83C136.96 37.83 123.64 43.9 114.82 53.7C114.82 53.7 106 63.5 101.59 76.05C101.59 76.05 97.18 88.59 97.18 101.72C97.18 101.72 97.18 109.76 99.04 116.42C99.04 116.42 100.9 123.09 104.82 127.99C104.82 127.99 108.74 132.89 114.91 135.63C114.91 135.63 121.09 138.38 129.71 138.38C129.71 138.38 140.3 138.38 147.55 134.46C147.55 134.46 154.8 130.54 159.11 126.62C159.11 126.62 159.7 129.56 160.68 132.2C160.68 132.2 161.66 134.85 162.64 137L178.71 134.65C178.71 134.65 176.75 129.36 175.97 124.75C175.97 124.75 175.18 120.15 175.18 115.64C175.18 115.64 175.18 111.13 175.87 107.02C175.87 107.02 176.56 102.9 177.54 98.39L192.63 36.85C192.63 36.85 187.53 34.1 180.48 32.93ZM272.36 89.28C272.36 89.28 269.03 98.78 262.85 106.13C262.85 106.13 256.68 113.48 247.86 117.8C247.86 117.8 239.04 122.11 227.87 122.11C227.87 122.11 225.71 122.11 223.46 122.01C223.46 122.01 221.2 121.91 219.24 121.52L236.49 49.39C236.49 49.39 239.24 48.61 243.35 47.73C243.35 47.73 247.47 46.84 252.37 46.84C252.37 46.84 259.42 46.84 263.93 48.71C263.93 48.71 268.44 50.57 271.09 53.7C271.09 53.7 273.73 56.84 274.71 60.96C274.71 60.96 275.69 65.07 275.69 69.38C275.69 69.38 275.69 79.77 272.36 89.28ZM168.23 47.63C168.23 47.63 170.48 47.82 171.46 48.22L159.7 96.82C159.7 96.82 158.92 100.55 158.43 104.17C158.43 104.17 157.94 107.8 157.74 111.13C157.74 111.13 153.43 115.84 147.55 119.36C147.55 119.36 141.67 122.89 133.44 122.89C133.44 122.89 127.95 122.89 124.52 120.83C124.52 120.83 121.09 118.78 119.03 115.54C119.03 115.54 116.97 112.31 116.19 108.09C116.19 108.09 115.4 103.88 115.4 99.76C115.4 99.76 115.4 89.38 118.83 79.87C118.83 79.87 122.26 70.36 128.63 63.21C128.63 63.21 135 56.06 144.02 51.74C144.02 51.74 153.04 47.43 164.21 47.43C164.21 47.43 165.97 47.43 168.23 47.63ZM318.77 137.4C318.77 137.4 321.32 136.42 323.28 134.55C323.28 134.55 325.24 132.69 326.51 130.05C326.51 130.05 327.79 127.4 327.79 124.07C327.79 124.07 327.79 118.19 324.55 115.15C324.55 115.15 321.32 112.11 315.83 112.11C315.83 112.11 310.34 112.11 306.13 115.93C306.13 115.93 301.92 119.76 301.92 126.81C301.92 126.81 301.92 132.5 305.05 135.44C305.05 135.44 308.19 138.38 313.68 138.38C313.68 138.38 316.22 138.38 318.77 137.4Z" /></g></svg>