<svg xmlns="http://www.w3.org/2000/svg" xmlns:xlink="http://www.w3.org/1999/xlink" width="604" height="394" viewBox="0 0 604 394" fill="none"><g opacity="1" transform="translate(0 0)  rotate(0 301.9990405872242 197)"><path id="矩形 2" fill-rule="evenodd" style="fill:#47F5CC" transform="translate(154.99808117444843 -105)  rotate(90 172 277)" opacity="1" d="M16,554L328,554C336.84,554 344,546.84 344,538L344,16C344,7.16 336.84,0 328,0L16,0C7.16,0 0,7.16 0,16L0,538C0,546.84 7.16,554 16,554Z " /><path id="矩形 2" fill-rule="evenodd" style="fill:#0095FF" transform="translate(105 -55)  rotate(90 172 277)" opacity="0.5" d="M16,554L328,554C336.84,554 344,546.84 344,538L344,16C344,7.16 336.84,0 328,0L16,0C7.16,0 0,7.16 0,16L0,538C0,546.84 7.16,554 16,554Z " /><g opacity="1" transform="translate(107.99999999999999 76)  rotate(0 184.5 96.5)"><text><tspan x="0" y="182.672" font-size="196" line-height="0" fill="#FFFFFF" opacity="1" font-family="Ubuntu-Italic" letter-spacing="-2" >Yap!</tspan></text></g></g></svg>