<svg xmlns="http://www.w3.org/2000/svg" xmlns:xlink="http://www.w3.org/1999/xlink" width="601" height="387" viewBox="0 0 601 387" fill="none"><g opacity="1" transform="translate(1.4210854715202004e-14 0.00250244140625)  rotate(0 300 193.26152059826063)"><path id="矩形 2" fill-rule="evenodd" style="fill:#47F5CC" transform="translate(150.49059900788058 -104.07251783343207)  rotate(90 172.71844157934368 276.79095941277575)" opacity="1" d="M16,553.58L329.44,553.58C338.28,553.58 345.44,546.42 345.44,537.58L345.44,16C345.44,7.16 338.28,0 329.44,0L16,0C7.16,0 0,7.16 0,16L0,537.58C0,546.42 7.16,553.58 16,553.58Z " /><path id="矩形 2" fill-rule="evenodd" style="fill:#0095FF" transform="translate(104.07251783343207 -62.98635979559813)  rotate(90 172.71844157934368 276.79095941277575)" opacity="0.5" d="M16,553.58L329.44,553.58C338.28,553.58 345.44,546.42 345.44,537.58L345.44,16C345.44,7.16 338.28,0 329.44,0L16,0C7.16,0 0,7.16 0,16L0,537.58C0,546.42 7.16,553.58 16,553.58Z " /><g opacity="1" transform="translate(93.17238427238786 99.15363493792549)  rotate(0 184.5 96.5)"><text><tspan x="0" y="182.672" font-size="196" line-height="0" fill="#FFFFFF" opacity="1" font-family="Ubuntu-Italic" letter-spacing="-2" >Yap!</tspan></text></g></g></svg>