<svg xmlns="http://www.w3.org/2000/svg" xmlns:xlink="http://www.w3.org/1999/xlink" width="828" height="828" viewBox="0 0 828 828" fill="none"><defs><linearGradient id="linear_0" x1="50%" y1="50%" x2="84.878%" y2="0%" gradientUnits="objectBoundingBox"><stop offset="0" stop-color="#7FC9FF" stop-opacity="1" /><stop offset="1" stop-color="#47F5CC" stop-opacity="1" /></linearGradient><filter id="filter_2" x="-10" y="-10" width="820" height="820" filterUnits="userSpaceOnUse" color-interpolation-filters="sRGB"><feFlood flood-opacity="0" result="BackgroundImageFix"/>
          <feColorMatrix in="SourceAlpha" type="matrix" values="0 0 0 0 0 0 0 0 0 0 0 0 0 0 0 0 0 0 127 0"/>
          <feOffset dx="0" dy="0"/>
          <feGaussianBlur stdDeviation="5"/>
          <feColorMatrix type="matrix" values="0 0 0 0 0 0 0 0 0 0 0 0 0 0 0 0 0 0 0.1 0"/>
          <feBlend mode="normal" in2="BackgroundImageFix" result="effect1_Shadow"/>
          <feBlend mode="normal" in="SourceGraphic" in2="effect1_Shadow" result="shape"/></filter></defs><g opacity="1" transform="translate(14 14)  rotate(0 400 400)"><g id="bg" filter="url(#filter_2)"><path id="bg" fill-rule="evenodd" fill="url(#linear_0)" transform="translate(0 0)  rotate(0 400 400)" opacity="1" d="M120,800L680,800C746.27,800 800,746.27 800,680L800,120C800,53.73 746.27,0 680,0L120,0C53.73,0 0,53.73 0,120L0,680C0,746.27 53.73,800 120,800Z " /></g><path id="inner" fill-rule="evenodd" style="fill:#FFFFFF" transform="translate(50 51)  rotate(0 350 350)" opacity="0.75" d="M120,700L580,700C646.27,700 700,646.27 700,580L700,120C700,53.73 646.27,0 580,0L120,0C53.73,0 0,53.73 0,120L0,580C0,646.27 53.73,700 120,700Z " /><g opacity="1" transform="translate(100.00000000000001 208)  rotate(0 300 193.26152059826063)"><path id="矩形 2" fill-rule="evenodd" style="fill:#47F5CC" transform="translate(150.49059900788058 -104.07251783343207)  rotate(90 172.71844157934368 276.79095941277575)" opacity="1" d="M16,553.58L329.44,553.58C338.28,553.58 345.44,546.42 345.44,537.58L345.44,16C345.44,7.16 338.28,0 329.44,0L16,0C7.16,0 0,7.16 0,16L0,537.58C0,546.42 7.16,553.58 16,553.58Z " /><path id="矩形 2" fill-rule="evenodd" style="fill:#0095FF" transform="translate(104.07251783343207 -62.98635979559813)  rotate(90 172.71844157934368 276.79095941277575)" opacity="0.5" d="M16,553.58L329.44,553.58C338.28,553.58 345.44,546.42 345.44,537.58L345.44,16C345.44,7.16 338.28,0 329.44,0L16,0C7.16,0 0,7.16 0,16L0,537.58C0,546.42 7.16,553.58 16,553.58Z " /><g opacity="1" transform="translate(93.17238427238786 99.15363493792549)  rotate(0 184.5 96.5)"><text><tspan x="0" y="182.672" font-size="196" line-height="0" fill="#FFFFFF" opacity="1" font-family="Ubuntu-Italic" letter-spacing="-2" >Yap!</tspan></text></g></g></g></svg>