<svg xmlns="http://www.w3.org/2000/svg" xmlns:xlink="http://www.w3.org/1999/xlink" width="828" height="828" viewBox="0 0 828 828" fill="none"><defs><linearGradient id="linear_0" x1="50%" y1="50%" x2="84.878%" y2="0%" gradientUnits="objectBoundingBox"><stop offset="0" stop-color="#7FC9FF" stop-opacity="1" /><stop offset="1" stop-color="#47F5CC" stop-opacity="1" /></linearGradient><filter id="filter_2" x="-10" y="-10" width="820" height="820" filterUnits="userSpaceOnUse" color-interpolation-filters="sRGB"><feFlood flood-opacity="0" result="BackgroundImageFix"/>
          <feColorMatrix in="SourceAlpha" type="matrix" values="0 0 0 0 0 0 0 0 0 0 0 0 0 0 0 0 0 0 127 0"/>
          <feOffset dx="0" dy="0"/>
          <feGaussianBlur stdDeviation="5"/>
          <feColorMatrix type="matrix" values="0 0 0 0 0 0 0 0 0 0 0 0 0 0 0 0 0 0 0.1 0"/>
          <feBlend mode="normal" in2="BackgroundImageFix" result="effect1_Shadow"/>
          <feBlend mode="normal" in="SourceGraphic" in2="effect1_Shadow" result="shape"/></filter></defs><g opacity="1" transform="translate(14 14)  rotate(0 400 400)"><g id="bg" filter="url(#filter_2)"><path id="bg" fill-rule="evenodd" fill="url(#linear_0)" transform="translate(0 0)  rotate(0 400 400)" opacity="1" d="M156,800L644,800C730.16,800 800,730.16 800,644L800,156C800,69.84 730.16,0 644,0L156,0C69.84,0 0,69.84 0,156L0,644C0,730.16 69.84,800 156,800Z " /></g><path id="inner" fill-rule="evenodd" style="fill:#FFFFFF" transform="translate(50 52)  rotate(0 350 350)" opacity="0.75" d="M130,700L570,700C641.8,700 700,641.8 700,570L700,130C700,58.2 641.8,0 570,0L130,0C58.2,0 0,58.2 0,130L0,570C0,641.8 58.2,700 130,700Z " /><g opacity="1" transform="translate(98 205)  rotate(0 301.9990405872242 197)"><path id="矩形 2" fill-rule="evenodd" style="fill:#47F5CC" transform="translate(154.99808117444843 -105)  rotate(90 172 277)" opacity="1" d="M16,554L328,554C336.84,554 344,546.84 344,538L344,16C344,7.16 336.84,0 328,0L16,0C7.16,0 0,7.16 0,16L0,538C0,546.84 7.16,554 16,554Z " /><path id="矩形 2" fill-rule="evenodd" style="fill:#0095FF" transform="translate(105 -55)  rotate(90 172 277)" opacity="0.5" d="M16,554L328,554C336.84,554 344,546.84 344,538L344,16C344,7.16 336.84,0 328,0L16,0C7.16,0 0,7.16 0,16L0,538C0,546.84 7.16,554 16,554Z " /><g opacity="1" transform="translate(107.99999999999999 76)  rotate(0 184.5 96.5)"><text><tspan x="0" y="182.672" font-size="196" line-height="0" fill="#FFFFFF" opacity="1" font-family="Ubuntu-Italic" letter-spacing="-2" >Yap!</tspan></text></g></g></g></svg>