<svg width="10" height="11" viewBox="0 0 10 11" fill="none" xmlns="http://www.w3.org/2000/svg">
<path d="M5 6.099L0.854492 10.2445C0.756836 10.3422 0.639648 10.391 0.50293 10.391C0.359701 10.391 0.239258 10.3438 0.141602 10.2494C0.0472005 10.1517 0 10.0313 0 9.88806C0 9.75134 0.0488281 9.63416 0.146484 9.5365L4.29199 5.39099L0.146484 1.24548C0.0488281 1.14783 0 1.02901 0 0.889038C0 0.820679 0.0130208 0.755575 0.0390625 0.693726C0.0651042 0.631877 0.100911 0.579793 0.146484 0.537476C0.192057 0.491903 0.245768 0.456095 0.307617 0.430054C0.369466 0.404012 0.43457 0.390991 0.50293 0.390991C0.639648 0.390991 0.756836 0.439819 0.854492 0.537476L5 4.68298L9.14551 0.537476C9.24316 0.439819 9.36198 0.390991 9.50195 0.390991C9.57031 0.390991 9.63379 0.404012 9.69238 0.430054C9.75423 0.456095 9.80794 0.491903 9.85352 0.537476C9.89909 0.583049 9.9349 0.636759 9.96094 0.698608C9.98698 0.757202 10 0.820679 10 0.889038C10 1.02901 9.95117 1.14783 9.85352 1.24548L5.70801 5.39099L9.85352 9.5365C9.95117 9.63416 10 9.75134 10 9.88806C10 9.95642 9.98698 10.0215 9.96094 10.0834C9.9349 10.1452 9.89909 10.1989 9.85352 10.2445C9.8112 10.2901 9.75911 10.3259 9.69727 10.3519C9.63542 10.378 9.57031 10.391 9.50195 10.391C9.36198 10.391 9.24316 10.3422 9.14551 10.2445L5 6.099Z" fill="black" fill-opacity="0.8956"/>
</svg>
