<svg width="10" height="11" viewBox="0 0 10 11" fill="none" xmlns="http://www.w3.org/2000/svg">
<path d="M1.47461 10.391C1.2793 10.391 1.09212 10.3519 0.913086 10.2738C0.734049 10.1924 0.576172 10.085 0.439453 9.95154C0.30599 9.81482 0.198568 9.65694 0.117188 9.47791C0.0390625 9.29887 0 9.11169 0 8.91638V1.8656C0 1.67029 0.0390625 1.48311 0.117188 1.30408C0.198568 1.12504 0.30599 0.968791 0.439453 0.835327C0.576172 0.698608 0.734049 0.591187 0.913086 0.513062C1.09212 0.431681 1.2793 0.390991 1.47461 0.390991H8.52539C8.7207 0.390991 8.90788 0.431681 9.08691 0.513062C9.26595 0.591187 9.4222 0.698608 9.55566 0.835327C9.69238 0.968791 9.7998 1.12504 9.87793 1.30408C9.95931 1.48311 10 1.67029 10 1.8656V8.91638C10 9.11169 9.95931 9.29887 9.87793 9.47791C9.7998 9.65694 9.69238 9.81482 9.55566 9.95154C9.4222 10.085 9.26595 10.1924 9.08691 10.2738C8.90788 10.3519 8.7207 10.391 8.52539 10.391H1.47461ZM8.50098 9.39001C8.56934 9.39001 8.63281 9.37699 8.69141 9.35095C8.75326 9.32491 8.80697 9.2891 8.85254 9.24353C8.89811 9.19796 8.93392 9.14587 8.95996 9.08728C8.986 9.02543 8.99902 8.96033 8.99902 8.89197V1.89001C8.99902 1.82166 8.986 1.75818 8.95996 1.69958C8.93392 1.63774 8.89811 1.58403 8.85254 1.53845C8.80697 1.49288 8.75326 1.45707 8.69141 1.43103C8.63281 1.40499 8.56934 1.39197 8.50098 1.39197H1.49902C1.43066 1.39197 1.36556 1.40499 1.30371 1.43103C1.24512 1.45707 1.19303 1.49288 1.14746 1.53845C1.10189 1.58403 1.06608 1.63774 1.04004 1.69958C1.014 1.75818 1.00098 1.82166 1.00098 1.89001V8.89197C1.00098 8.96033 1.014 9.02543 1.04004 9.08728C1.06608 9.14587 1.10189 9.19796 1.14746 9.24353C1.19303 9.2891 1.24512 9.32491 1.30371 9.35095C1.36556 9.37699 1.43066 9.39001 1.49902 9.39001H8.50098Z" fill="black" fill-opacity="0.8956"/>
</svg>
