<svg width="10" height="2" viewBox="0 0 10 2" fill="none" xmlns="http://www.w3.org/2000/svg">
<path d="M0.498047 1.39099C0.429688 1.39099 0.364583 1.37797 0.302734 1.35193C0.244141 1.32589 0.192057 1.29008 0.146484 1.24451C0.100911 1.19893 0.0651042 1.14685 0.0390625 1.08826C0.0130208 1.02641 0 0.961304 0 0.892944C0 0.824585 0.0130208 0.761108 0.0390625 0.702515C0.0651042 0.640666 0.100911 0.586955 0.146484 0.541382C0.192057 0.492554 0.244141 0.455119 0.302734 0.429077C0.364583 0.403035 0.429688 0.390015 0.498047 0.390015H9.50195C9.57031 0.390015 9.63379 0.403035 9.69238 0.429077C9.75423 0.455119 9.80794 0.492554 9.85352 0.541382C9.89909 0.586955 9.9349 0.640666 9.96094 0.702515C9.98698 0.761108 10 0.824585 10 0.892944C10 0.961304 9.98698 1.02641 9.96094 1.08826C9.9349 1.14685 9.89909 1.19893 9.85352 1.24451C9.80794 1.29008 9.75423 1.32589 9.69238 1.35193C9.63379 1.37797 9.57031 1.39099 9.50195 1.39099H0.498047Z" fill="black" fill-opacity="0.8956"/>
</svg>
