<svg xmlns="http://www.w3.org/2000/svg" xmlns:xlink="http://www.w3.org/1999/xlink" width="604" height="394" viewBox="0 0 604 394" fill="none"><g opacity="1" transform="translate(0 0)  rotate(0 301.9990405872242 197)"><path id="green" fill-rule="evenodd" style="fill:#47F5CC" transform="translate(154.99808117444843 -105)  rotate(90 172 277)" opacity="1" d="M16,554L328,554C336.84,554 344,546.84 344,538L344,16C344,7.16 336.84,0 328,0L16,0C7.16,0 0,7.16 0,16L0,538C0,546.84 7.16,554 16,554Z " /><path id="blue" fill-rule="evenodd" style="fill:#0095FF" transform="translate(105 -55)  rotate(90 172 277)" opacity="0.5" d="M16,554L328,554C336.84,554 344,546.84 344,538L344,16C344,7.16 336.84,0 328,0L16,0C7.16,0 0,7.16 0,16L0,538C0,546.84 7.16,554 16,554Z " /><path id="Rush" fill-rule="evenodd" style="fill:#FFFFFF" transform="translate(65.876 128.576)  rotate(0 230.888 77.322)" opacity="1" d="M399.25 99.96L386.71 152.1L368.48 152.1L380.04 103.88C381.42 98.39 382.69 92.71 382.69 92.71C383.96 87.02 383.96 81.93 383.96 81.93C383.96 74.09 379.65 68.89 379.65 68.89C375.34 63.7 363.58 63.7 363.58 63.7C358.88 63.7 353.88 64.58 353.88 64.58C348.88 65.46 345.55 67.03 345.55 67.03L325.16 152.1L306.94 152.1L342.8 3.14L361.82 0L349.27 51.55C353.78 49.98 358.78 49 358.78 49C363.78 48.02 368.87 48.02 368.87 48.02C377.69 48.02 384.06 50.47 384.06 50.47C390.43 52.92 394.35 57.13 394.35 57.13C398.27 61.35 400.13 67.33 400.13 67.33C402 73.3 402 80.36 402 80.36C402 88.98 399.25 99.96 399.25 99.96ZM438.84 28.62L442.76 104.66L455.7 104.66L459.62 28.62L460.01 5.49L438.45 5.49L438.84 28.62ZM0 152.1L19.01 152.1L31.75 98.59L46.84 98.59C46.84 98.59 49.39 98.59 51.94 98.49C51.94 98.49 54.49 98.39 57.04 98.2C57.04 98.2 59.58 102.9 62.62 109.07C62.62 109.07 65.66 115.25 68.7 122.3C68.7 122.3 71.74 129.36 74.68 137C74.68 137 77.62 144.65 80.36 152.1L99.76 152.1C99.76 152.1 97.41 144.26 94.28 135.93C94.28 135.93 91.14 127.6 87.81 119.85C87.81 119.85 84.48 112.11 81.34 105.74C81.34 105.74 78.2 99.37 75.85 95.26C75.85 95.26 94.08 90.16 104.17 78.5C104.17 78.5 114.27 66.84 114.27 49.59C114.27 49.59 114.27 32.54 101.53 23.72C101.53 23.72 88.79 14.9 67.03 14.9C67.03 14.9 58.8 14.9 49.59 15.48C49.59 15.48 40.38 16.07 32.14 18.03L0 152.1ZM64.68 30.97C50.76 30.97 47.82 31.75 47.82 31.75L35.48 83.1L47.04 83.1C55.08 83.1 63.5 81.93 63.5 81.93C71.93 80.75 78.89 77.32 78.89 77.32C85.85 73.89 90.26 67.72 90.26 67.72C94.67 61.54 94.67 51.35 94.67 51.35C94.67 40.38 86.34 35.67 86.34 35.67C78.01 30.97 64.68 30.97 64.68 30.97ZM238.34 89.87C238.34 89.87 239.9 93.88 242.75 96.82C242.75 96.82 245.59 99.76 249.31 101.92C249.31 101.92 253.04 104.08 257.54 106.23C257.54 106.23 262.05 108.58 265.29 110.45C265.29 110.45 268.52 112.31 270.68 114.27C270.68 114.27 272.83 116.23 273.81 118.48C273.81 118.48 274.79 120.74 274.79 123.68C274.79 123.68 274.79 128.18 272.73 131.22C272.73 131.22 270.68 134.26 267.44 136.02C267.44 136.02 264.21 137.79 259.99 138.57C259.99 138.57 255.78 139.36 251.66 139.36C251.66 139.36 247.16 139.36 243.04 138.57C243.04 138.57 238.92 137.79 235.49 136.61C235.49 136.61 232.06 135.44 229.61 134.26C229.61 134.26 227.16 133.08 225.79 132.3L218.74 147.2C218.74 147.2 220.11 147.98 222.75 149.25C222.75 149.25 225.4 150.53 229.42 151.7C229.42 151.7 233.44 152.88 238.83 153.76C238.83 153.76 244.22 154.64 250.88 154.64C250.88 154.64 259.9 154.64 267.54 152.59C267.54 152.59 275.18 150.53 280.77 146.41C280.77 146.41 286.36 142.3 289.49 136.02C289.49 136.02 292.63 129.75 292.63 121.52C292.63 121.52 292.63 115.84 291.16 111.72C291.16 111.72 289.69 107.6 286.85 104.57C286.85 104.57 284 101.53 279.99 99.08C279.99 99.08 275.97 96.63 270.87 94.28C270.87 94.28 262.64 90.55 258.52 87.12C258.52 87.12 254.41 83.69 254.41 78.4C254.41 78.4 254.41 74.09 256.27 71.05C256.27 71.05 258.13 68.01 261.17 66.15C261.17 66.15 264.21 64.29 267.93 63.5C267.93 63.5 271.66 62.72 275.38 62.72C275.38 62.72 282.83 62.72 288.9 64.48C288.9 64.48 294.98 66.25 297.72 67.82L304.58 52.92C304.58 52.92 301.84 51.35 294.69 49.49C294.69 49.49 287.53 47.63 278.12 47.63C278.12 47.63 257.94 47.63 247.35 56.55C247.35 56.55 236.77 65.46 236.77 80.16C236.77 80.16 236.77 85.85 238.34 89.87ZM141.22 152.1C135.44 149.55 131.81 145.24 131.81 145.24C128.18 140.92 126.62 135.04 126.62 135.04C125.05 129.16 125.05 122.5 125.05 122.5C125.05 117.4 125.93 112.41 125.93 112.41C126.81 107.41 127.99 102.31 127.99 102.31L140.53 50.18L158.76 50.18L147.2 98.39C146.22 102.9 144.65 108.98 144.65 108.98C143.08 115.05 143.08 121.13 143.08 121.13C143.08 124.66 143.77 127.89 143.77 127.89C144.45 131.12 146.31 133.57 146.31 133.57C148.18 136.02 151.31 137.49 151.31 137.49C154.45 138.96 159.15 138.96 159.15 138.96C167.58 138.96 173.95 135.34 173.95 135.34C180.32 131.71 184.63 126.81 184.63 126.81C184.83 123.68 185.22 120.34 185.22 120.34C185.61 117.01 186.59 113.09 186.59 113.09L201.68 50.18L219.91 50.18L204.43 114.66C203.45 119.17 202.76 123.38 202.76 123.38C202.08 127.6 202.08 132.1 202.08 132.1C202.08 136.61 202.86 141.12 202.86 141.12C203.64 145.63 205.6 150.92 205.6 150.92L189.53 153.27C188.55 151.12 187.57 148.37 187.57 148.37C186.59 145.63 186 142.49 186 142.49C183.85 144.45 180.91 146.61 180.91 146.61C177.97 148.76 174.15 150.53 174.15 150.53C170.32 152.29 165.72 153.47 165.72 153.47C161.11 154.64 155.62 154.64 155.62 154.64C147 154.64 141.22 152.1 141.22 152.1ZM436.69 140.14C436.69 132.3 442.37 127.01 449.23 127.01C456.09 127.01 461.78 132.3 461.78 140.14C461.78 147.98 456.09 153.08 449.23 153.08C442.18 153.08 436.69 147.98 436.69 140.14Z" /></g></svg>