<svg viewBox="0 0 400 300" fill="none" xmlns="http://www.w3.org/2000/svg"><path opacity=".27" d="M190 270.226c67.002 0 121.318-54.316 121.318-121.318S257.002 27.59 190 27.59 68.682 81.906 68.682 148.908 122.998 270.226 190 270.226Z" fill="#D6DCED"/><path d="M229.933 246.294c.315.755 18.45 24.076 18.45 24.076l5.738-11.942-20.31-35.11-3.878 22.976Z" fill="#fff"/><path d="M235.253 250.566c-3.139 10.75 18.232-.161 19.968-5.113 1.735-4.953-3.948-13.418-3.948-13.418l-6.82 10.553" fill="#DCDDDD"/><path d="M229.933 246.294c.315.755 18.45 24.076 18.45 24.076l5.738-11.942-20.31-35.11-3.878 22.976Z" stroke="#31333A" stroke-linecap="round" stroke-linejoin="round"/><path d="m240.528 262.248 11.507-7.827 8.851 11.736-15.011 24.095-12.889 3.831a10.53 10.53 0 0 1-.933-8.884c3.196-7.618 18.009-1.667 8.475-22.951Z" fill="#31333A"/><path d="m241.129 264.234 4.082.556M241.843 268.723l3.614.527M240.32 273.161l4.965.527" stroke="#31333A" stroke-linecap="round" stroke-linejoin="round"/><path d="M157.106 250.899c-.51.674-11.929 28.679-11.929 28.679l13.58-1.46 20.79-36.168-22.441 8.949Z" fill="#fff"/><path d="M156.044 257.742c-11.182 3.051 9.526 15.546 14.826 14.389 5.3-1.158 9.908-10.552 9.908-10.552l-12.9-.21" fill="#DCDDDD"/><path d="M157.106 250.899c-.51.674-11.929 28.679-11.929 28.679l13.58-1.46 20.79-36.168-22.441 8.949Z" stroke="#31333A" stroke-linecap="round" stroke-linejoin="round"/><path d="m148.363 268.504 12.887 5.686-5.888 13.857h-42.789a11.296 11.296 0 0 1 7.426-5.545c8.423-1.329 23.798-5.462 28.364-13.998Z" fill="#31333A"/><path d="m111.917 285.177 50.04-.247M146.904 270.081l1.607 3.797M143.278 273.091l1.391 3.38M138.544 274.156l2.087 4.538" stroke="#31333A" stroke-linecap="round" stroke-linejoin="round"/><path d="M178.031 138.951a14.53 14.53 0 0 0-9.802-2.202c-2.915.597-5.937.4-8.75-.568 0 0-1.838 3.574 4.22 4.138 0 0-8.855 5.251-14.848 4.007-3.87-.803-4.671 4.774 7.174 3.665 8.994-.843 16.793-4.462 22.71-2.777 2.01.572-.704-6.263-.704-6.263Z" fill="#fff"/><path d="M170.051 136.586a81.612 81.612 0 0 0-.092 12.142l6.97-2.98-4.383-5.654 1.095 9.204" fill="#DCDDDD"/><path d="M178.031 138.951a14.53 14.53 0 0 0-9.802-2.202c-2.915.597-5.937.4-8.75-.568 0 0-1.838 3.574 4.22 4.138 0 0-8.855 5.251-14.848 4.007-3.87-.803-4.671 4.774 7.174 3.665 8.994-.843 16.793-4.462 22.71-2.777 2.01.572-.704-6.263-.704-6.263Z" stroke="#31333A" stroke-linecap="round" stroke-linejoin="round"/><path d="m260.226 127.878-37.896 15.509a23.172 23.172 0 0 1-7.02 1.66l-40.692 3.09s-5.357-8.823-4.582-13.998l42.568-7.029 37.01-24.384 10.613 25.153" fill="#DCDDDD"/><path d="M154.585 156.972c41.574 0 75.277-33.703 75.277-75.278 0-41.574-33.703-75.277-75.277-75.277-41.575 0-75.278 33.703-75.278 75.277 0 41.575 33.703 75.278 75.278 75.278Z" fill="#5578EC" stroke="#31333A" stroke-linecap="round" stroke-linejoin="round"/><path d="M150.148 100.763a4.68 4.68 0 0 1 5.989-.226 4.43 4.43 0 0 1-.003 5.986l-5.099 5.099a18.663 18.663 0 0 1-13.19 5.464 18.661 18.661 0 0 1-13.19-5.464 18.645 18.645 0 0 1-5.463-13.19 18.643 18.643 0 0 1 5.463-13.19l12.193-12.192a18.59 18.59 0 0 1 13.19-5.488 18.602 18.602 0 0 1 13.192 5.486 4.232 4.232 0 1 1-5.986 5.986 10.459 10.459 0 0 0-7.317-3.107 10.078 10.078 0 0 0-7.316 3.107l-12.193 12.192a10.422 10.422 0 0 0-2.211 11.291 10.424 10.424 0 0 0 9.528 6.45 10.08 10.08 0 0 0 7.316-3.108l5.099-5.099-.002.003Zm34.366-48.999a18.59 18.59 0 0 1 4.06 20.333 18.615 18.615 0 0 1-4.06 6.047l-12.193 12.193a18.594 18.594 0 0 1-13.191 5.49 18.606 18.606 0 0 1-13.194-5.485l-.22-.22a4.096 4.096 0 0 1 .22-5.543 4.426 4.426 0 0 1 5.986-.002 10.449 10.449 0 0 0 7.317 3.107 10.075 10.075 0 0 0 7.316-3.108l12.193-12.192a10.418 10.418 0 0 0-7.317-17.735 10.055 10.055 0 0 0-7.316 3.107l-5.097 5.096a4.238 4.238 0 0 1-2.993 1.24 4.234 4.234 0 0 1-2.993-7.226l5.099-5.099a18.603 18.603 0 0 1 26.38 0l.003-.003Z" fill="#fff" stroke="#31333A" stroke-linecap="round" stroke-linejoin="round"/><path d="m252.171 77.957 11.026 24.35-16.784 2.012-3.059-20.935 8.817-5.427Z" fill="#fff"/><path d="m249.01 85.446-5.6 13.302-1.097-11.686 3.224-2.878" fill="#DCDDDD"/><path d="m252.171 77.957 11.026 24.35-16.784 2.012-3.059-20.935 8.817-5.427Z" stroke="#31333A" stroke-linecap="round" stroke-linejoin="round"/><path d="m248.174 87.82-5.812 1.642a3.942 3.942 0 0 1-1.98.075 6.265 6.265 0 0 1-4.653-7.497l3.123-13.51 12.134 5.704.04 10.35" fill="#fff"/><path d="m248.174 87.82-5.812 1.642a3.942 3.942 0 0 1-1.98.075 6.265 6.265 0 0 1-4.653-7.497l3.123-13.51 12.134 5.704.04 10.35" stroke="#31333A" stroke-linecap="round" stroke-linejoin="round"/><path d="M246.118 80.65c-3.439-.327-.549-7.216-6.477-6.844-5.928.371-15.618-11.515-6.735-8.635 8.883 2.88 2.54-9.627 7.981-3.723 5.441 5.904 6.506 9.482 12.178 9.37 5.671-.112 4.321 11.929-.05 14.356-4.372 2.426-6.897-4.523-6.897-4.523Z" fill="#31333A"/><path d="M243.621 79.588c10.203-5.075 11.144 3.171 3.38 6.12l-3.38-6.12Z" fill="#fff"/><path d="M243.621 79.588c10.203-5.075 11.144 3.171 3.38 6.12" stroke="#31333A" stroke-linecap="round" stroke-linejoin="round"/><path d="M238.662 79.732a.849.849 0 0 1-.493-1.028l.233-.686a.725.725 0 0 1 .4-.422.72.72 0 0 1 .582.013.847.847 0 0 1 .493 1.028l-.234.686a.708.708 0 0 1-.4.422.715.715 0 0 1-.581-.013Z" fill="#31333A"/><path d="M238.986 76.12a6.1 6.1 0 0 1 2.885 1.096l-2.885-1.097Z" fill="#fff"/><path d="M238.986 76.12a6.1 6.1 0 0 1 2.885 1.096" stroke="#31333A" stroke-linecap="round" stroke-linejoin="round"/><path d="m237.557 82.43 3.824-1.9c2.954 3.541-2.763 5.55-3.824 1.9Z" fill="#B5B5B6"/><path d="m249.354 79.694-2.941 2M248.174 82.156v-1.561" stroke="#31333A" stroke-linecap="round" stroke-linejoin="round"/><path d="M143.023 257.642s24.348 15.51 32.383 12.729l28.886-66.035 58.673-37.086-7.477-30.265-69.282 42.415a17.586 17.586 0 0 0-6.916 7.716l-36.267 70.526Z" fill="#fff"/><path d="M241.824 158.875s-32.787 37.313-37.532 45.461c-9.234 15.855 39.84-13.366 39.84-13.366" fill="#DCDDDD"/><path d="m194.713 232.404-7.164-17.889a12.398 12.398 0 0 1 3.415-14.001l28.718-27.95-15.02 51.945" fill="#DCDDDD"/><path d="M143.023 248.774c18.588 13.872 42.797 14.806 42.797 14.806l-42.797-14.806Z" fill="#fff"/><path d="M143.023 248.774c18.588 13.872 42.797 14.806 42.797 14.806" stroke="#31333A" stroke-linecap="round" stroke-linejoin="round"/><path d="M143.023 257.642s24.348 15.51 32.383 12.729l28.886-66.035 58.673-37.086-7.477-30.265-69.282 42.415a17.586 17.586 0 0 0-6.916 7.716l-36.267 70.526Z" stroke="#31333A" stroke-linecap="round" stroke-linejoin="round"/><path d="m258.933 92.144-2.06-4.032-14.157 8.327-.701 5.868 18.014-7.533" fill="#fff"/><path d="m258.933 92.144-2.06-4.032-14.157 8.327-.701 5.868 18.014-7.533" stroke="#31333A" stroke-linecap="round" stroke-linejoin="round"/><path d="m222.797 168.233-24.191 29.285c-2.431 3.957-16.141 14.37 1.215 34.841l27.38 35.613c18.791-5.56 25.26-19.994 25.26-19.994l-27.276-36.076 26.318-25.582a49.764 49.764 0 0 0 14.735-23.94l2.317-8.318-24.766-11.242" fill="#fff"/><path d="M233.86 153.975c2.808 12.064 60.4 34.869 60.4 34.869l-18.671-29.393" fill="#DCDDDD"/><path d="M211.159 265.496c26.298.799 41.318-29.945 41.318-29.945l-41.318 29.945Z" fill="#fff"/><path d="M211.159 265.496c26.298.799 41.318-29.945 41.318-29.945" stroke="#31333A" stroke-linecap="round" stroke-linejoin="round"/><path d="M252.477 157.264c-.522 14.702-27.539 42.324-37.785 52.287a5.552 5.552 0 0 0-.275 7.736l29.14 32.573" stroke="#31333A" stroke-linecap="round" stroke-linejoin="round"/><path d="M241.752 160.549c-15.428 14.612-1.504 20.808-1.504 20.808" stroke="#31333A" stroke-linecap="round" stroke-linejoin="round"/><path d="m222.797 168.233-24.191 29.285c-2.431 3.957-16.141 14.37 1.215 34.841l27.38 35.613c18.791-5.56 25.26-19.994 25.26-19.994l-27.276-36.076 26.318-25.582a49.764 49.764 0 0 0 14.735-23.94l2.317-8.318-24.766-11.242" stroke="#31333A" stroke-linecap="round" stroke-linejoin="round"/><path d="M219.932 149.807c1.869 5.286 51.186 18.426 51.186 18.426s-.953-21.877 2.454-39.453c3.822-19.711-14.726-37.601-14.726-37.601l-16.831 8.467a37.348 37.348 0 0 0-8.643 33.582c2.924 12.898-13.44 16.579-13.44 16.579Z" fill="#B5B5B6"/><g opacity=".3"><path d="M334.062 235.568c9.903-18.968 1.167-43.095-19.511-53.891-20.678-10.795-45.468-4.17-55.37 14.797-9.903 18.967-1.167 43.095 19.511 53.89 20.678 10.796 45.468 4.171 55.37-14.796Z" stroke="#fff" stroke-width="2" stroke-miterlimit="10"/><path d="M279.933 237.56c3.778-13.222-13.25-29.681-38.033-36.764-24.784-7.082-47.938-2.105-51.716 11.117-3.778 13.221 13.25 29.681 38.033 36.763 24.784 7.082 47.938 2.106 51.716-11.116Z" stroke="#fff" stroke-width="2" stroke-miterlimit="10"/><path d="M206.97 249.43c23.765 0 43.03-20.972 43.03-46.842 0-25.869-19.265-46.841-43.03-46.841s-43.031 20.972-43.031 46.841c0 25.87 19.266 46.842 43.031 46.842Z" fill="#fff" stroke="#31333A" stroke-linecap="round" stroke-linejoin="round"/></g><path d="m256.824 126.282 4.949 4.216-38.932 26.474-4.865-14.813 19.458-8.019" fill="#31333A"/><path d="M219.932 149.807c1.869 5.286 51.186 18.426 51.186 18.426s-.953-21.877 2.454-39.453c3.822-19.711-14.726-37.601-14.726-37.601l-16.831 8.467a37.348 37.348 0 0 0-8.643 33.582c2.924 12.898-13.44 16.579-13.44 16.579Z" stroke="#31333A" stroke-linecap="round" stroke-linejoin="round"/><path d="M179.931 146.014a15.754 15.754 0 0 0-10.846-.211c-5.719 2.072-9.531 1.26-9.531 1.26s-1.601 4.093 5.015 3.397c0 0-9.013 7.313-15.633 7.291-4.275-.015-4.538 5.934 8.16 2.281 9.641-2.774 17.689-8.173 24.275-7.678 2.237.169-1.44-6.34-1.44-6.34Z" fill="#fff"/><path d="M173.844 140.562c-3.125 10.096.691 14.88.382 18.436-.31 3.556 5.155-2.307 5.155-2.307v-5.879" fill="#DCDDDD"/><path d="M179.931 146.014a15.754 15.754 0 0 0-10.846-.211c-5.719 2.072-9.531 1.26-9.531 1.26s-1.601 4.093 5.015 3.397c0 0-9.013 7.313-15.633 7.291-4.275-.015-4.538 5.934 8.16 2.281 9.641-2.774 17.689-8.173 24.275-7.678 2.237.169-1.44-6.34-1.44-6.34Z" stroke="#31333A" stroke-linecap="round" stroke-linejoin="round"/><path d="m242.57 102.973-30.024 24.981-41.071 13.38c-.011 5.235 6.573 13.151 6.573 13.151l40.539-5.71c5.834-1.039 33.441-13.726 45.89-19.536" fill="#B5B5B6"/><g opacity=".3" stroke="#fff" stroke-width="2" stroke-miterlimit="10"><path d="M304.353 199.878c9.903-18.967 1.167-43.095-19.511-53.89-20.678-10.796-45.468-4.171-55.37 14.796-9.903 18.968-1.167 43.095 19.511 53.891 20.678 10.795 45.468 4.171 55.37-14.797Z"/><path d="M250.227 201.882c3.779-13.221-13.248-29.681-38.031-36.764-24.784-7.084-47.938-2.107-51.716 11.114-3.779 13.222 13.248 29.682 38.031 36.765 24.784 7.083 47.938 2.107 51.716-11.115ZM279.206 67.454c2.55-13.556-15.856-28.395-41.11-33.144-25.253-4.75-47.792 2.39-50.341 15.946-2.549 13.556 15.856 28.395 41.11 33.144 25.253 4.749 47.792-2.39 50.341-15.946Z"/></g><path d="m242.57 102.973-30.024 24.981-41.071 13.38c-.011 5.235 6.573 13.151 6.573 13.151l40.539-5.71c5.834-1.039 33.441-13.726 45.89-19.536" stroke="#31333A" stroke-linecap="round" stroke-linejoin="round"/><path d="M237.434 76.667c-2.583 2.422-3.617 4.366-.598 5.027l.598-5.027Z" fill="#fff"/><path d="M237.434 76.667c-2.583 2.422-3.617 4.366-.598 5.027M168.546 149.616l-3.977.844" stroke="#31333A" stroke-linecap="round" stroke-linejoin="round"/><path d="M102.636 202.834a5.385 5.385 0 1 0 0-10.772 5.386 5.386 0 1 0 0 10.772ZM258.614 37.177l9.089-3.313M254.069 45.146l9.089-3.313" stroke="#3351E5" stroke-width="2" stroke-linecap="round" stroke-linejoin="round"/></svg>