<svg viewBox="0 0 400 300" fill="none" xmlns="http://www.w3.org/2000/svg"><path opacity=".1" d="M200.666 277.651c67.002 0 121.318-54.316 121.318-121.318S267.668 35.015 200.666 35.015 79.348 89.33 79.348 156.333s54.316 121.318 121.318 121.318Z" fill="#5578EC"/><path d="M259.581 239.703s12.142-2.02 24.59-4.098a52.18 52.18 0 0 0-22.403-24.776l-6.047 6.607s.983-3.561 2.347-8.482a51.663 51.663 0 0 0-18.36-4.601l-3.268 24.589s-2.684-12.027-5.412-24.422a51.886 51.886 0 0 0-34.166 18.014l15.731 13.966s-10.432-4.504-19.771-8.55a51.734 51.734 0 0 0-8.375 28.283c0 .605.025 1.204.045 1.803h103.896c.02-.6.045-1.198.045-1.803a51.993 51.993 0 0 0-2.256-15.176l-26.596-1.354Z" fill="#DCDDDD"/><path d="m208.786 192.262 27.654 36.68v-27.315M184.447 231.195l28.146 5.305-22.679-14.159" fill="#DCDDDD"/><path d="M259.581 239.703s12.142-2.02 24.59-4.098a52.18 52.18 0 0 0-22.403-24.776l-6.047 6.607s.983-3.561 2.347-8.482a51.663 51.663 0 0 0-18.36-4.601l-3.268 24.589s-2.684-12.027-5.412-24.422a51.886 51.886 0 0 0-34.166 18.014l15.731 13.966s-10.432-4.504-19.771-8.55a51.734 51.734 0 0 0-8.375 28.283c0 .605.025 1.204.045 1.803h103.896c.02-.6.045-1.198.045-1.803a51.993 51.993 0 0 0-2.256-15.176l-26.596-1.354Z" stroke="#31333A" stroke-linecap="round" stroke-linejoin="round"/><path d="M235.163 54.39H97.277a1.95 1.95 0 0 0-1.95 1.949v199.988a1.95 1.95 0 0 0 1.95 1.949h137.886a1.949 1.949 0 0 0 1.949-1.949V56.339c0-1.077-.872-1.95-1.949-1.95Z" fill="#fff" stroke="#31333A" stroke-linecap="round" stroke-linejoin="round"/><path d="M125.066 91.45h-2.502a7.35 7.35 0 0 0-7.35 7.35v2.503a7.35 7.35 0 0 0 7.35 7.35h2.502a7.35 7.35 0 0 0 7.351-7.35v-2.502a7.35 7.35 0 0 0-7.351-7.35ZM210.318 93.73h-66.755a5.132 5.132 0 0 0-5.132 5.131v2.381a5.132 5.132 0 0 0 5.132 5.132h66.755a5.132 5.132 0 0 0 5.132-5.132v-2.38a5.131 5.131 0 0 0-5.132-5.132Z" fill="#DCDDDD"/><path d="M125.066 196.788h-2.502a7.35 7.35 0 0 0-7.35 7.351v2.501a7.35 7.35 0 0 0 7.35 7.351h2.502a7.35 7.35 0 0 0 7.351-7.351v-2.501a7.35 7.35 0 0 0-7.351-7.351ZM210.318 199.067h-66.755a5.132 5.132 0 0 0-5.132 5.132v2.381a5.132 5.132 0 0 0 5.132 5.132h66.755a5.132 5.132 0 0 0 5.132-5.132v-2.381a5.132 5.132 0 0 0-5.132-5.132Z" stroke="#fff" stroke-width="2" stroke-miterlimit="10"/><path d="M125.066 126.562h-2.502a7.35 7.35 0 0 0-7.35 7.351v2.502a7.35 7.35 0 0 0 7.35 7.35h2.502a7.35 7.35 0 0 0 7.351-7.35v-2.502a7.35 7.35 0 0 0-7.351-7.351ZM210.318 128.842h-66.755a5.132 5.132 0 0 0-5.132 5.131v2.382a5.132 5.132 0 0 0 5.132 5.131h66.755a5.13 5.13 0 0 0 5.132-5.131v-2.382a5.13 5.13 0 0 0-5.132-5.131Z" fill="#DCDDDD"/><path d="M125.066 161.676h-2.502a7.35 7.35 0 0 0-7.35 7.35v2.502a7.35 7.35 0 0 0 7.35 7.351h2.502a7.35 7.35 0 0 0 7.351-7.351v-2.502a7.35 7.35 0 0 0-7.351-7.35ZM210.318 163.955h-66.755a5.132 5.132 0 0 0-5.132 5.132v2.381a5.132 5.132 0 0 0 5.132 5.131h66.755a5.13 5.13 0 0 0 5.132-5.131v-2.381a5.132 5.132 0 0 0-5.132-5.132Z" stroke="#fff" stroke-width="2" stroke-miterlimit="10"/><path d="M186.219 41.766h-7.083a12.917 12.917 0 0 0-25.832 0h-7.083a16.53 16.53 0 0 0-16.528 16.528v1.865a2.808 2.808 0 0 0 .825 1.99 2.819 2.819 0 0 0 1.991.826h67.422a2.81 2.81 0 0 0 1.991-.825 2.814 2.814 0 0 0 .825-1.991v-1.865a16.54 16.54 0 0 0-4.841-11.688 16.533 16.533 0 0 0-11.687-4.84Z" fill="#fff"/><path d="m146.28 66.592 61.427-8.627-3.163 6.38-26.24 6.607" fill="#DCDDDD"/><path d="M186.219 41.766h-7.083a12.917 12.917 0 0 0-25.832 0h-7.083a16.53 16.53 0 0 0-16.528 16.528v1.865a2.808 2.808 0 0 0 .825 1.99 2.819 2.819 0 0 0 1.991.826h67.422a2.81 2.81 0 0 0 1.991-.825 2.814 2.814 0 0 0 .825-1.991v-1.865a16.54 16.54 0 0 0-4.841-11.688 16.533 16.533 0 0 0-11.687-4.84v0Z" stroke="#31333A" stroke-linecap="round" stroke-linejoin="round"/><path d="M166.22 47.068a5.303 5.303 0 1 1 0-10.606 5.303 5.303 0 0 1 0 10.605Z" fill="#fff" stroke="#31333A" stroke-linecap="round" stroke-linejoin="round"/><path d="m260.89 62.336-.735-4.117s-12.637-7.132-14.654 2.871c-2.018 10.004 9.456 13.808 4.567 18.228-4.888 4.42-10.475 10.469-5.005 13.958 5.471 3.49 28.052-2.21 28.052-2.21l-4.074-14.98-8.151-13.75Z" fill="#31333A"/><path d="m255.207 60.108-3.887 9.153a5.707 5.707 0 0 0 3.62 7.698l3.346 1a1.252 1.252 0 0 0 1.551-.811l4.971-15.234a1.254 1.254 0 0 0-1.033-1.631l-7.255-.928a1.253 1.253 0 0 0-1.313.753Z" fill="#fff" stroke="#31333A" stroke-linecap="round" stroke-linejoin="round"/><path d="M255.138 66.559c.006.101-.747 2.234-.747 2.234-2.293.336.007 1.662.007 1.662" fill="#fff"/><path d="M255.138 66.559c.006.101-.747 2.234-.747 2.234-2.293.336.007 1.662.007 1.662" stroke="#31333A" stroke-linecap="round" stroke-linejoin="round"/><path d="M253.123 67.939a.59.59 0 0 1-.458-.676l.098-.53a.555.555 0 0 1 .24-.357.55.55 0 0 1 .424-.073.59.59 0 0 1 .459.676l-.098.529a.557.557 0 0 1-.24.357.55.55 0 0 1-.425.074Z" fill="#31333A"/><path d="m251.851 64.998 2.709.491" stroke="#31333A" stroke-linecap="round" stroke-linejoin="round"/><path d="M256.746 68.469a.59.59 0 0 1-.458-.676l.098-.529a.554.554 0 0 1 .24-.357.546.546 0 0 1 .424-.074.592.592 0 0 1 .459.676l-.099.529a.538.538 0 0 1-.24.358.546.546 0 0 1-.424.073Z" fill="#31333A"/><path d="m256.365 65.532 2.709.491" stroke="#31333A" stroke-linecap="round" stroke-linejoin="round"/><path d="m254.532 71.444 3.76-.989c1.779 3.716-3.657 4.452-3.76.99Z" fill="#B5B5B6"/><path d="m261.64 71.622 1.266-1.234M262.412 72.098l-.063-1.093" stroke="#31333A" stroke-linecap="round" stroke-linejoin="round"/><path d="M258.992 58.614c-7.682 11.012 9.079 11.09 3.725 24.194-5.355 13.105-3.921 19.312 11.251 11.787 10.631-5.273-5.509-40.866-14.976-35.98Z" fill="#31333A"/><path d="M252.66 65.408c1.455-3.508 4.026-4.765 6.422-4.458 2.396.306 1.772-1.716 1.772-1.716l-4.256-.843a8.47 8.47 0 0 0-3.938 7.017Z" fill="#31333A"/><path d="m254.14 76.668-1.493 11.584 10.022-.97-.85-14.473" fill="#fff"/><path d="M251.77 83.315c-.781.358 7.21-5.33 7.21-5.33l-4.84-1.317a39.863 39.863 0 0 0-2.37 6.647Z" fill="#DCDDDD"/><path d="m254.14 76.668-1.493 11.584 10.022-.97-.85-14.473" stroke="#31333A" stroke-linecap="round" stroke-linejoin="round"/><path d="M259.26 70.555c.202-.193.422-.367.656-.52 1.552-1.011 3.413-.91 4.156.23.744 1.138.089 2.882-1.463 3.894-.37.243-.775.43-1.2.552" fill="#fff"/><path d="M259.26 70.555c.202-.193.422-.367.656-.52 1.552-1.011 3.413-.91 4.156.23.744 1.138.089 2.882-1.463 3.894-.37.243-.775.43-1.2.552" stroke="#31333A" stroke-linecap="round" stroke-linejoin="round"/><path d="m254.048 161.069 26.832-.589 2.853 8.494-28.17 2.119-1.515-10.024Z" fill="#fff"/><path d="M269.502 160.73c1.555 2.837 1.766 11.019 1.766 11.019l-8.116 1.304" fill="#DCDDDD"/><path d="m254.048 161.069 26.832-.589 2.853 8.494-28.17 2.119-1.515-10.024Z" stroke="#31333A" stroke-linecap="round" stroke-linejoin="round"/><path d="M307.107 182.416s-3.776 6.902-14.083-6.48c-3.982-5.17-12.602-5.954-12.602-5.954l-5.317-9.883 12.068-.794a2.924 2.924 0 0 1 2.437 1.152l17.497 21.959Z" fill="#DCDDDD"/><path d="m287.174 159.305 23.169 29.587" stroke="#31333A" stroke-linecap="round" stroke-linejoin="round"/><path d="M284.209 166.226a1.514 1.514 0 1 0 0-3.027 1.514 1.514 0 0 0 0 3.027Z" fill="#fff" stroke="#31333A" stroke-linecap="round" stroke-linejoin="round"/><path d="m224.758 210.216-2.606 26.712-8.773 1.822 1.246-28.222 10.133-.312Z" fill="#fff"/><path d="m224.758 210.216-2.606 26.712-8.773 1.822 1.246-28.222 10.133-.312Z" stroke="#31333A" stroke-linecap="round" stroke-linejoin="round"/><path d="M197.253 260.36s-6.404-4.57 8.108-13.212c5.607-3.339 7.41-11.805 7.41-11.805l10.446-4.104-.647 12.078a2.913 2.913 0 0 1-1.434 2.281l-23.883 14.762Z" fill="#DCDDDD"/><path d="M217.554 241.244a1.514 1.514 0 1 0 0-3.028 1.514 1.514 0 0 0 0 3.028Z" fill="#fff" stroke="#31333A" stroke-linecap="round" stroke-linejoin="round"/><path d="M270.432 159.375c.954 7.787-5.366 25.808-5.366 25.808l-50.902-9.569c-6.298.136-11.79-3.795-13.009-9.312a10.731 10.731 0 0 1 3.281-10.16l33.972-32.153 23.355 3.692-17.071 31.893 25.74-.199Z" fill="#fff"/><path d="M257.25 154.586c-26.455 9.928-9.274 34.611-9.274 34.611l-47.066-6.75s29.015-41.387 34.81-41.387c10.237 0 17.841 6.541 17.841 6.541" fill="#DCDDDD"/><path d="M270.432 159.375c.954 7.787-5.366 25.808-5.366 25.808l-50.902-9.569c-6.298.136-11.79-3.795-13.009-9.312a10.731 10.731 0 0 1 3.281-10.16l33.972-32.153 23.355 3.692-17.071 31.893 25.74-.199Z" stroke="#31333A" stroke-linecap="round" stroke-linejoin="round"/><path d="M205.362 223.364c22.965 2.762 34.528-4.991 34.528-4.991l-4.161-41.48 29.338-29.291c7.705-9.244 3.031-26.332 3.031-26.332l-19.61 2.907-33.05 43.705a16.003 16.003 0 0 0-3.811 8.343l-6.265 47.139Z" fill="#fff"/><path d="M205.362 223.364c22.965 2.762 34.528-4.991 34.528-4.991l-4.161-41.48 29.338-29.291c7.705-9.244 3.031-26.332 3.031-26.332l-19.61 2.907-33.05 43.705a16.003 16.003 0 0 0-3.811 8.343l-6.265 47.139Z" stroke="#31333A" stroke-linecap="round" stroke-linejoin="round"/><path d="M255.643 130.365c-3.637 2.82 1.607 7.036 1.607 7.036l-1.607-7.036Z" fill="#fff"/><path d="M255.643 130.365c-3.637 2.82 1.607 7.036 1.607 7.036" stroke="#31333A" stroke-linecap="round" stroke-linejoin="round"/><path d="M312.398 115.95c4.961.871 13.499-.623 14.1-.469 1.306.335 8.421 7.037 8.682 7.908.261.871-.67 1.546-5.983-1.997 0 0-.759 2.743-1.729 2.741-.526-.001-15.07-1.548-15.07-1.548v-6.635Z" fill="#fff"/><path d="M316.67 113.956c2.357 8.012 1.414 9.705 3.77 10.178 2.356.473-13.196 2.208-13.196 2.208l6.692-10.218" fill="#DCDDDD"/><path d="M312.398 115.95c4.961.871 13.499-.623 14.1-.469 1.306.335 8.421 7.037 8.682 7.908.261.871-.67 1.546-5.983-1.997 0 0-.759 2.743-1.729 2.741-.526-.001-15.07-1.548-15.07-1.548v-6.635Z" stroke="#31333A" stroke-linecap="round" stroke-linejoin="round"/><path d="m222.137 124.742 30.199-21.322s-5.213-18.164-9.485-17.147c-4.272 1.016-22.596 20.972-22.596 20.972-12.806 12.723 1.882 17.497 1.882 17.497Z" fill="#5578EC"/><path d="m240.921 102.957-7.791 18.715 12.66-8.118 2.186-12.478" fill="#3351E5"/><path d="m211.012 42.56-23.158 21.005 31.701 9.07-8.543-30.075ZM255.278 43.435l-32.399 3.673L243.537 71.8l11.741-28.366Z" fill="#fff" stroke="#31333A" stroke-linecap="round" stroke-linejoin="round"/><path d="m222.137 124.742 30.199-21.322s-5.213-18.164-9.485-17.147c-4.272 1.016-22.596 20.972-22.596 20.972-12.806 12.724 1.882 17.497 1.882 17.497Z" stroke="#31333A" stroke-linecap="round" stroke-linejoin="round"/><path d="m240.533 100.551 4.037 25.061s19.913 4.638 24.702-1.65l5.04-36.876a2.872 2.872 0 0 0-1.464-2.88 2.86 2.86 0 0 0-1.085-.338c-4.966-.507-15.139-.967-17.901-.573a71.236 71.236 0 0 0-11.011 2.978" fill="#5578EC"/><path d="M258.558 89.888c5.397-1.791 8.988-5.609 8.019-8.527-.968-2.919-6.129-3.833-11.526-2.042-5.398 1.79-8.988 5.608-8.02 8.527.969 2.918 6.129 3.832 11.527 2.042Z" fill="#fff" stroke="#31333A" stroke-linecap="round" stroke-linejoin="round"/><path d="M258.356 87.863c4.741-1.316 8.054-4.29 7.401-6.644-.654-2.354-5.026-3.195-9.767-1.88-4.74 1.317-8.054 4.292-7.4 6.645.653 2.354 5.026 3.195 9.766 1.88Z" fill="#fff" stroke="#31333A" stroke-linecap="round" stroke-linejoin="round"/><path d="m266.11 103.106 6.333 20.882 6.074-16.426-8.943-3.8" fill="#3351E5"/><path d="m240.533 100.551 4.037 25.061s19.913 4.638 24.702-1.65l5.04-36.876a2.872 2.872 0 0 0-1.464-2.88 2.86 2.86 0 0 0-1.085-.338c-4.966-.507-15.139-.967-17.901-.573a71.236 71.236 0 0 0-11.011 2.978" stroke="#31333A" stroke-linecap="round" stroke-linejoin="round"/><path d="M272.587 84.08c4.852 1.495 16.9 18.51 22.242 21.047l22.716 10.789c.392 8.176-3.869 11.841-3.869 11.841s-19.127-5.981-27.012-8.445c-6.238-1.949-17.4-12.223-21.794-16.433" fill="#5578EC"/><path d="M272.587 84.08c4.852 1.495 16.9 18.51 22.242 21.047l22.716 10.789c.392 8.176-3.869 11.841-3.869 11.841s-19.127-5.981-27.012-8.445c-6.238-1.949-17.4-12.223-21.794-16.433" stroke="#31333A" stroke-linecap="round" stroke-linejoin="round"/><path d="M255.192 128.723h-14.433a2.059 2.059 0 0 1-2.058-2.058v-19.763a2.056 2.056 0 0 1 2.058-2.058h14.433a2.057 2.057 0 0 1 2.058 2.058v19.763a2.057 2.057 0 0 1-2.058 2.058Z" fill="#fff"/><path d="M237.962 110.191c2.088 9.012 10.467 15.383 10.467 15.383l7.853 6.405-23.292-2.861" fill="#DCDDDD"/><path d="M255.192 128.723h-14.433a2.059 2.059 0 0 1-2.058-2.058v-19.763a2.056 2.056 0 0 1 2.058-2.058h14.433a2.057 2.057 0 0 1 2.058 2.058v19.763a2.057 2.057 0 0 1-2.058 2.058Z" stroke="#31333A" stroke-linecap="round" stroke-linejoin="round"/><path d="M248.201 118.375a2.41 2.41 0 1 0 0-4.82 2.41 2.41 0 0 0 0 4.82Z" fill="#fff" stroke="#31333A" stroke-linecap="round" stroke-linejoin="round"/><path d="M245.275 123.141c2.747.828 4.249 1.419 4.663 1.108.413-.311 2.482-1.631 2.858-1.542.375.09 3.911 1.885 4.564 2.235.653.35.819 1.793.261 2.595.142.312.198.657.162.998a1.902 1.902 0 0 1-.369.941s-.23 2.04-1.132 2.503c0 0-4.654-.196-5.243-.336-.59-.14-9.308-4.552-9.308-4.552l3.544-3.95Z" fill="#fff"/><path d="M247.914 124.278a16.33 16.33 0 0 0 2.09 8.38l-7.035-3.201" fill="#DCDDDD"/><path d="M245.275 123.141c2.747.828 4.249 1.419 4.663 1.108.413-.311 2.482-1.631 2.858-1.542.375.09 3.911 1.885 4.564 2.235.653.35.819 1.793.261 2.595.142.312.198.657.162.998a1.902 1.902 0 0 1-.369.941s-.23 2.04-1.132 2.503c0 0-4.654-.196-5.243-.336-.59-.14-9.308-4.552-9.308-4.552l3.544-3.95Z" stroke="#31333A" stroke-linecap="round" stroke-linejoin="round"/><path d="m230.87 111.415 16.813 11.779c1.326 4.47-1.886 10.832-1.886 10.832s-23.85-9.183-27.15-11.102" fill="#5578EC"/><path d="m242.613 185.451-15.943-28.839-15.469 26.957 31.412 1.882Z" fill="#fff" stroke="#31333A" stroke-linecap="round" stroke-linejoin="round"/><path d="m230.87 111.415 16.813 11.779c1.326 4.47-1.886 10.832-1.886 10.832s-23.85-9.183-27.15-11.102" stroke="#31333A" stroke-linecap="round" stroke-linejoin="round"/><path d="M253.768 94.688c.589-.55.714-1.372.28-1.838-.434-.466-1.264-.398-1.853.151-.589.55-.714 1.373-.28 1.838.434.466 1.264.398 1.853-.151ZM252.582 100.327c.589-.55.715-1.373.28-1.838-.434-.466-1.264-.398-1.853.151-.589.55-.714 1.372-.28 1.838.435.466 1.264.398 1.853-.151Z" fill="#3351E5"/><path d="M244.936 121.269s.538 7.723-3.205 11.216l4.066 1.54s3.36-6.384 1.886-10.832l-2.747-1.924ZM314.625 114.529s.38 8.166-4.282 12.186l3.333 1.042s4.508-3.735 3.869-11.841l-2.92-1.387Z" fill="#DCDDDD" stroke="#31333A" stroke-linecap="round" stroke-linejoin="round"/><path d="m226.26 221.814.74-44.449a13.22 13.22 0 0 1 3.165-8.365l34.384-40.276M196.162 258.923l26.612-17.029M240.416 100.57l.505 3.634M290.295 107.95l3.305-3.569M232.861 112.81l1.019.713M229.891 110.729l2.97 2.08M326.562 118.99l2.635 2.403M254.359 126.511l3.261 1.027M255.153 128.974l1.991.627" stroke="#31333A" stroke-linecap="round" stroke-linejoin="round"/><path d="M119.345 233.39a5.386 5.386 0 1 0 0-10.773 5.386 5.386 0 0 0 0 10.773ZM73.064 142.605l9.09-3.313M68.52 150.574l9.09-3.313" stroke="#3351E5" stroke-width="2" stroke-linecap="round" stroke-linejoin="round"/><path d="m255.531 81.18-1.585 1.073-.427 2.933 8.457-1.163-.127-2.145" fill="#fff"/></svg>