<svg viewBox="0 0 400 300" fill="none" xmlns="http://www.w3.org/2000/svg"><path opacity=".1" d="M200.708 273.318c66.76 0 120.88-54.316 120.88-121.318s-54.12-121.318-120.88-121.318c-66.761 0-120.88 54.316-120.88 121.318s54.119 121.318 120.88 121.318Z" fill="#5578EC"/><path d="m249.085 221.991 14.691-20.223 13.105 9.87-13.898 15.783-13.898-5.43ZM236.675 221.991l-14.692-20.223-13.104 9.87 13.898 15.783 13.898-5.43Z" fill="#DCDDDD"/><path d="M263.736 201.768h-41.713v45.514h41.713v-45.514Z" fill="#fff" stroke="#31333A" stroke-width=".998" stroke-linecap="round" stroke-linejoin="round"/><path d="M275.75 213.405h-65.74v45.514h65.74v-45.514Z" fill="#fff"/><path d="m282.352 250.999-38.114 14.812 34.406-.207" fill="#DCDDDD"/><path d="M275.75 213.405h-65.74v45.514h65.74v-45.514Z" stroke="#31333A" stroke-width=".998" stroke-linecap="round" stroke-linejoin="round"/><path d="M285.28 228.989h-84.801l8.326-17.351h68.149l8.326 17.351Z" fill="#fff"/><path d="M285.28 228.989h-84.801l8.326-17.351h68.149l8.326 17.351Z" stroke="#31333A" stroke-width=".998" stroke-linecap="round" stroke-linejoin="round"/><path d="M263.518 236.162h-41.276c-.727 0-1.316.589-1.316 1.315v7.611c0 .726.589 1.315 1.316 1.315h41.276c.726 0 1.315-.589 1.315-1.315v-7.611c0-.726-.589-1.315-1.315-1.315Z" fill="#5578EC" stroke="#31333A" stroke-width=".998" stroke-linecap="round" stroke-linejoin="round"/><path d="M301.211 81.558H80.819c-6.577 0-11.908 5.33-11.908 11.907v.043c0 6.577 5.331 11.908 11.908 11.908H301.21c6.577 0 11.908-5.331 11.908-11.908v-.043c0-6.576-5.331-11.907-11.908-11.907Z" fill="#DCDDDD"/><path d="M216.735 81.558H80.819c-6.577 0-11.908 5.33-11.908 11.907v.043c0 6.577 5.331 11.908 11.908 11.908h135.916c6.577 0 11.908-5.331 11.908-11.908v-.043c0-6.576-5.331-11.907-11.908-11.907Z" fill="#5578EC" stroke="#31333A" stroke-width=".998" stroke-linecap="round" stroke-linejoin="round"/><path d="M242.88 125.714c15.963 0 28.903-12.987 28.903-29.008 0-16.02-12.94-29.008-28.903-29.008s-28.903 12.988-28.903 29.008c0 16.021 12.94 29.008 28.903 29.008Z" fill="#3351E5"/><path d="M242.88 110.995c7.863 0 14.237-6.397 14.237-14.288 0-7.892-6.374-14.289-14.237-14.289s-14.237 6.397-14.237 14.288c0 7.892 6.374 14.289 14.237 14.289Z" fill="#fff" stroke="#31333A" stroke-width=".998" stroke-linecap="round" stroke-linejoin="round"/><path d="M196.349 48.042h10.631a3.593 3.593 0 0 1 3.591 3.591v.013a3.592 3.592 0 0 1-3.591 3.592h-10.631v-7.196Z" fill="#31333A" stroke="#31333A" stroke-width=".998" stroke-linecap="round" stroke-linejoin="round"/><path d="m129.411 209.433-17.261 29.836 8.645 6.974 1.351-.244 16.971-23.246-9.706-13.32Z" fill="#fff"/><path opacity=".34" d="M118.582 219.497c11.806 12.046 16.431 10.515 16.431 10.515l-7.422-13.123-2.455.406" fill="url(#a)"/><path d="m129.411 209.433-17.261 29.836 8.645 6.974 1.351-.244 16.971-23.246-9.706-13.32Z" stroke="#31333A" stroke-width=".998" stroke-linecap="round" stroke-linejoin="round"/><path d="m106.619 246.27 14.657 13.864 16.538 1.085s5.413-9.692-5.68-8.773c-11.04.913-6.22-9.66-6.22-9.66l-10.261-10.499-9.034 13.983Z" fill="#31333A"/><path d="m121.889 244.347 6.279 1.808M121.717 247.464l7.429 2.475" stroke="#31333A" stroke-width=".998" stroke-linecap="round" stroke-linejoin="round"/><path d="m162.088 215.779 3.823 33.715 10.302-.623.866-1.088-.365-28.63-14.626-3.374Z" fill="#fff"/><path opacity=".34" d="M159.662 230.509c15.476 1.02 18.053-3.217 18.053-3.217l-12.822-4.76-1.595 1.948" fill="url(#b)"/><path d="m162.088 215.779 3.823 33.715 10.302-.623.866-1.088-.365-28.63-14.626-3.374Z" stroke="#31333A" stroke-width=".998" stroke-linecap="round" stroke-linejoin="round"/><path d="m165.71 258.398 33.614.827s1.156-13.794-8.862-9.848c-10.018 3.946-12.376-6.504-12.376-6.504l-13.466-.909 1.09 16.434Z" fill="#31333A"/><path d="m163.295 256.281 41.857.955M176.325 246.349l5.667-2.87M177.935 248.777l6.892-3.145" stroke="#31333A" stroke-width=".998" stroke-linecap="round" stroke-linejoin="round"/><path d="m206.133 112.06 2.258-20.286s7.096-7.877 8.171-8.309c1.075-.431 5.136 3.965 4.611 3.847-3.674-.827-.154 2.545-4.68 2.462-.721-.014-1.866 5.983-1.866 5.983l-3.122 25.041-5.802-10.033" fill="#fff"/><path d="m206.133 112.06 2.258-20.286s7.096-7.877 8.171-8.309c1.075-.431 5.136 3.965 4.611 3.847-3.674-.827-.154 2.545-4.68 2.462-.721-.014-1.866 5.983-1.866 5.983l-3.122 25.041-5.802-10.033" stroke="#31333A" stroke-width=".998" stroke-linecap="round" stroke-linejoin="round"/><path d="m197.156 59.273-9.448 9.828 11.299 5.44 5.933-12.47-7.784-2.798Z" fill="#fff"/><path d="m198.372 61.809 6.931 8.926 1.35-9.641" fill="#DCDDDD"/><path d="m197.156 59.273-9.448 9.828 11.299 5.44 5.933-12.47-7.784-2.798Z" stroke="#31333A" stroke-width=".998" stroke-linecap="round" stroke-linejoin="round"/><path d="M194.767 43.28h8.118V59.34h-15.21v-8.966a7.093 7.093 0 0 1 7.092-7.093Z" fill="#31333A" stroke="#31333A" stroke-width=".998" stroke-linecap="round" stroke-linejoin="round"/><path d="M197.139 43.28h10.638a3.59 3.59 0 0 1 3.584 3.598 3.597 3.597 0 0 1-3.584 3.598h-10.638" fill="#31333A"/><path d="M197.139 43.28h10.638a3.59 3.59 0 0 1 3.584 3.598v0a3.597 3.597 0 0 1-3.584 3.598h-10.638" stroke="#31333A" stroke-width=".998" stroke-linecap="round" stroke-linejoin="round"/><path d="M199.519 63.43c14.312 6.715 11.307-9.368 6.928-15.42-4.722-6.528-10.07 2.916-10.07 2.916l-.556 10.486" fill="#fff"/><path d="M199.519 63.43c14.312 6.715 11.307-9.368 6.928-15.42-4.722-6.528-10.07 2.916-10.07 2.916l-.556 10.486" stroke="#31333A" stroke-width=".998" stroke-linecap="round" stroke-linejoin="round"/><path d="m206.094 45.71-8.266-1.095-2.006 2.755-2.371 3.502-.922 4.626.33.793-1.778 3.701.531 5.048" fill="#31333A"/><path d="M191.612 65.04s11.342-3.895 9.96-8.058c7.177.528 6.695-8.438 4.522-11.272" fill="#31333A"/><path d="M191.612 65.04s11.342-3.895 9.96-8.058c7.177.528 6.695-8.438 4.522-11.272" stroke="#31333A" stroke-width=".998" stroke-linecap="round" stroke-linejoin="round"/><path d="M185.336 67.67c3.914 0 7.087-3.185 7.087-7.113 0-3.929-3.173-7.114-7.087-7.114-3.915 0-7.088 3.185-7.088 7.114 0 3.928 3.173 7.113 7.088 7.113Z" fill="#31333A" stroke="#31333A" stroke-width=".998" stroke-linecap="round" stroke-linejoin="round"/><path d="m193.002 63.033-.936.542-5.949-10.34.936-.544 5.949 10.342Z" fill="#fff" stroke="#31333A" stroke-width=".998" stroke-linecap="round" stroke-linejoin="round"/><path d="M205.303 56.54c-3.891-5.23-9.415-1.054-3.501 3.161l3.501-3.16Z" fill="#fff"/><path d="M205.303 56.54c-3.891-5.23-9.415-1.054-3.501 3.161" stroke="#31333A" stroke-width=".998" stroke-linecap="round" stroke-linejoin="round"/><path d="m188.666 68.12 1.654-2.022s10.069-3.739 11.621 3.624" fill="#fff"/><path d="m188.666 68.12 1.654-2.022s10.069-3.739 11.621 3.624" stroke="#31333A" stroke-width=".998" stroke-linecap="round" stroke-linejoin="round"/><path d="M149.711 227.292s19.48 6.867 28.004 0v-54.75l-2.704-52.53-21.939 5.179 4.045 46.572-7.406 55.529Z" fill="#DCDDDD"/><path d="M145.788 221.242c11.743 8.112 34.411.662 34.411.662l-34.411-.662Z" fill="#DCDDDD"/><path d="M145.788 221.242c11.743 8.112 34.411.662 34.411.662" stroke="#31333A" stroke-width=".998" stroke-linecap="round" stroke-linejoin="round"/><path d="M149.711 227.292s19.48 6.867 28.004 0v-54.75l-2.704-52.53-21.939 5.179 4.045 46.572-7.406 55.529Z" stroke="#31333A" stroke-width=".998" stroke-linecap="round" stroke-linejoin="round"/><path d="M110.56 216.515s5.329 11.48 25.946 14.114l30.12-46.387a10.585 10.585 0 0 0 1.28-4.137l4.1-52.695 11.12-11.838-18.934-18.866-8.368 5.116c-6.405 3.999-18.79 10.99-17.071 25.183l5.986 43.35-34.179 46.16Z" fill="#DCDDDD"/><path d="M114.697 208.385c2.415 13.133 27.569 18.982 27.569 18.982l-27.569-18.982Z" fill="#DCDDDD"/><path d="M114.697 208.385c2.415 13.133 27.569 18.982 27.569 18.982" stroke="#31333A" stroke-width=".998" stroke-linecap="round" stroke-linejoin="round"/><path d="m166.389 103.79-12.032 8.689a15.07 15.07 0 0 0-5.94 13.27l3.105 44.837-34.033 47.51" stroke="#31333A" stroke-width=".998" stroke-linecap="round" stroke-linejoin="round"/><path d="m169.235 112.237-7.459 6.106a8.922 8.922 0 0 1-9.407 1.302l-2.714-1.224" stroke="#31333A" stroke-width=".998" stroke-linecap="round" stroke-linejoin="round"/><path d="M110.56 216.515s5.329 11.48 25.946 14.114l30.12-46.387a10.585 10.585 0 0 0 1.28-4.137l4.1-52.695 11.12-11.838-18.934-18.866-8.368 5.116c-6.405 3.999-18.79 10.99-17.071 25.183l5.986 43.35-34.179 46.16Z" stroke="#31333A" stroke-width=".998" stroke-linecap="round" stroke-linejoin="round"/><path d="M159.6 97.165c-.377 12.111 24.3 26.255 24.3 26.255 3.582-9.461 19.821-30.608 19.821-30.608l-3.771-21.95s-1.32-4.732-10.182-3.596C180.907 68.4 168.085 93.67 159.6 97.165Z" fill="#fff"/><path d="M177.108 72.575c2.936-2.58 2.538-7.832-.889-11.73-3.426-3.898-8.583-4.966-11.519-2.386-2.935 2.58-2.537 7.832.889 11.73 3.427 3.898 8.584 4.966 11.519 2.386ZM208.089 119.285c2.935-2.581 2.537-7.832-.889-11.73-3.427-3.898-8.584-4.966-11.519-2.386-2.936 2.58-2.538 7.832.889 11.73 3.426 3.898 8.583 4.966 11.519 2.386ZM172.417 130.721c2.935-2.58 2.537-7.832-.889-11.73-3.427-3.898-8.584-4.966-11.519-2.386-2.936 2.581-2.537 7.832.889 11.73 3.426 3.898 8.584 4.966 11.519 2.386Z" fill="#fff" stroke="#31333A" stroke-width=".998" stroke-linecap="round" stroke-linejoin="round"/><path d="M159.6 97.165c-.377 12.111 24.3 26.255 24.3 26.255 3.582-9.461 19.821-30.608 19.821-30.608l-3.771-21.95s-1.32-4.732-10.182-3.596C180.907 68.4 168.085 93.67 159.6 97.165Z" stroke="#31333A" stroke-width=".998" stroke-linecap="round" stroke-linejoin="round"/><path d="m186.51 87.273 13.385 34.021a5.905 5.905 0 0 0 4.932 4.366 5.9 5.9 0 0 0 2.31-.151 5.925 5.925 0 0 0 4.227-7l-5.661-33.39-19.193 2.154Z" fill="#fff"/><path opacity=".34" d="M184.103 104.607c18.336-.077 14.19-6.515 21.097-12.127 6.607-5.368-1.309-4.615-1.309-4.615l-16.987 3.016" fill="url(#c)"/><path d="m186.51 87.273 13.385 34.021a5.905 5.905 0 0 0 4.932 4.366 5.9 5.9 0 0 0 2.31-.151v0a5.925 5.925 0 0 0 4.227-7l-5.661-33.39-19.193 2.154Z" stroke="#31333A" stroke-width=".998" stroke-linecap="round" stroke-linejoin="round"/><path d="m184.037 79.764 4.062 25.647c10.166.261 20.852-9.68 20.852-9.68l-3.387-19.561c-.904-5.222-5.734-8.656-10.701-8.867" fill="#fff"/><path d="M191.875 63.572c2.936-2.58 2.538-7.832-.889-11.73-3.426-3.898-8.583-4.966-11.519-2.386-2.935 2.58-2.537 7.832.889 11.73 3.427 3.898 8.584 4.966 11.519 2.386ZM218.076 71.774c2.935-2.58 2.537-7.832-.889-11.73-3.427-3.898-8.584-4.966-11.519-2.386-2.936 2.58-2.538 7.832.889 11.73 3.426 3.898 8.583 4.966 11.519 2.386ZM222.856 110.282c2.935-2.581 2.537-7.832-.889-11.73-3.427-3.898-8.584-4.966-11.519-2.386-2.936 2.58-2.538 7.832.889 11.73 3.426 3.898 8.584 4.966 11.519 2.386ZM187.184 121.718c2.935-2.58 2.537-7.832-.889-11.73-3.426-3.898-8.584-4.966-11.519-2.386-2.935 2.581-2.537 7.832.889 11.73 3.426 3.898 8.584 4.966 11.519 2.386ZM211.645 123.049c2.935-2.58 2.537-7.832-.889-11.73-3.427-3.898-8.584-4.966-11.519-2.386-2.936 2.581-2.537 7.832.889 11.73 3.426 3.898 8.584 4.966 11.519 2.386Z" fill="#fff" stroke="#31333A" stroke-width=".998" stroke-linecap="round" stroke-linejoin="round"/><path d="m184.037 79.764 4.062 25.647c10.166.261 20.852-9.68 20.852-9.68l-3.387-19.561c-.904-5.222-5.734-8.656-10.701-8.867" stroke="#31333A" stroke-width=".998" stroke-linecap="round" stroke-linejoin="round"/><path d="M208.486 56.092a.768.768 0 0 0 .396-.945l-.239-.606a.646.646 0 0 0-.639-.398.639.639 0 0 0-.256.074.76.76 0 0 0-.397.944l.239.607a.642.642 0 0 0 .896.324Z" fill="#31333A"/><path d="M208.039 52.861a5.454 5.454 0 0 0-2.534 1.111l2.534-1.11Z" fill="#fff"/><path d="M208.039 52.861a5.454 5.454 0 0 0-2.534 1.111" stroke="#31333A" stroke-width=".998" stroke-linecap="round" stroke-linejoin="round"/><path d="m208.944 57.82-3.824-.076c-1.038 4.014 4.362 3.451 3.824.076Z" fill="#B5B5B6"/><path d="m201.009 55.375 2.718 1.668M201.198 57.873l.906-1.741M171.37 135.574l-3.464 44.531" stroke="#31333A" stroke-width=".998" stroke-linecap="round" stroke-linejoin="round"/><path d="M208.702 53.502c2.57 2.005 3.707 2.46 1.211 5.246a1.999 1.999 0 0 1-.243.233" fill="#fff"/><path d="M208.702 53.502c2.57 2.005 3.707 2.46 1.211 5.246a1.999 1.999 0 0 1-.243.233" stroke="#31333A" stroke-width=".998" stroke-linecap="round" stroke-linejoin="round"/><path d="M214.3 85.473s6.942-8.535 7.138-8.83c.195-.295 2.232-1.24-.687 4.914 0 0 2.853.394 3.098.443a22.622 22.622 0 0 1 2.153 2.26 1.397 1.397 0 0 1-2.055.736l1.174 1.276a1.429 1.429 0 0 1-1.954.218 1.42 1.42 0 0 1-.443-.561s-4.363 3.855-4.754 4.395c-.197.271-2.573 2.997-3.993 4.93" fill="#fff"/><path d="M214.3 85.473s6.942-8.535 7.138-8.83c.195-.295 2.232-1.24-.687 4.914 0 0 2.853.394 3.098.443a22.622 22.622 0 0 1 2.153 2.26 1.397 1.397 0 0 1-2.055.736l1.174 1.276a1.429 1.429 0 0 1-1.954.218 1.42 1.42 0 0 1-.443-.561s-4.363 3.855-4.754 4.395c-.197.271-2.573 2.998-3.993 4.93" stroke="#31333A" stroke-width=".998" stroke-linecap="round" stroke-linejoin="round"/><path d="m225.443 167.412-8.268 4.193a2.05 2.05 0 0 0-.899 2.746l8.722 17.325a2.038 2.038 0 0 0 1.971 1.117c.266-.02.527-.093.766-.214l12.376-6.276a2.049 2.049 0 0 0 .899-2.746l-6.647-13.203-8.92-2.942Z" fill="#fff"/><path d="m225.443 167.412-8.268 4.193a2.05 2.05 0 0 0-.899 2.746l8.722 17.325a2.038 2.038 0 0 0 1.971 1.117c.266-.02.527-.093.766-.214l12.376-6.276a2.049 2.049 0 0 0 .899-2.746l-6.647-13.203-8.92-2.942Z" stroke="#31333A" stroke-width=".998" stroke-linecap="round" stroke-linejoin="round"/><path d="M227.519 171.535a2.042 2.042 0 0 0 1.18 1.019 2.037 2.037 0 0 0 1.556-.117l4.108-2.083-8.92-2.942 2.076 4.123Z" fill="#DCDDDD"/><path d="m261.013 141.213-7.804-6.242a2.193 2.193 0 0 0-2.43-.204c-.252.14-.474.328-.653.554l-12.987 16.353a2.205 2.205 0 0 0 .349 3.095l11.682 9.343a2.18 2.18 0 0 0 2.43.205c.252-.14.474-.329.653-.555l9.896-12.462-1.136-10.087Z" fill="#fff"/><path d="m261.013 141.213-7.804-6.242a2.193 2.193 0 0 0-2.43-.204c-.252.14-.474.328-.653.554l-12.987 16.353a2.205 2.205 0 0 0 .349 3.095l11.682 9.343a2.18 2.18 0 0 0 2.43.205c.252-.14.474-.329.653-.555l9.896-12.462-1.136-10.087Z" stroke="#31333A" stroke-width=".998" stroke-linecap="round" stroke-linejoin="round"/><path d="M257.923 145.104a2.209 2.209 0 0 0 .348 3.094l3.877 3.102-1.135-10.087-3.09 3.891Z" fill="#DCDDDD"/><path d="M115.481 171.766c2.964 0 5.367-2.412 5.367-5.387 0-2.974-2.403-5.386-5.367-5.386s-5.367 2.412-5.367 5.386c0 2.975 2.403 5.387 5.367 5.387ZM269.519 161.339l9.056-3.313M264.99 169.308l9.057-3.313" stroke="#3351E5" stroke-width="1.996" stroke-linecap="round" stroke-linejoin="round"/><defs><linearGradient id="a" x1="120.822" y1="216.547" x2="135.768" y2="228.863" gradientUnits="userSpaceOnUse"><stop offset=".101" stop-color="#FF7638"/><stop offset=".885" stop-color="#FF3929"/></linearGradient><linearGradient id="b" x1="159.662" y1="226.6" x2="177.715" y2="226.6" gradientUnits="userSpaceOnUse"><stop offset=".101" stop-color="#FF7638"/><stop offset=".885" stop-color="#FF3929"/></linearGradient><linearGradient id="c" x1="184.103" y1="96.218" x2="207.832" y2="96.218" gradientUnits="userSpaceOnUse"><stop offset=".101" stop-color="#FF7638"/><stop offset=".885" stop-color="#FF3929"/></linearGradient></defs></svg>