<svg viewBox="0 0 400 300" fill="none" xmlns="http://www.w3.org/2000/svg"><path opacity=".1" d="M198.969 271.318c67.002 0 121.318-54.316 121.318-121.318S265.971 28.682 198.969 28.682 77.651 82.998 77.651 150s54.316 121.318 121.318 121.318Z" fill="#5578EC"/><path d="M289.073 63.95a19.489 19.489 0 0 0-4.373-6.86 19.446 19.446 0 0 0-32.276 7.475 19.438 19.438 0 0 0 4.585 19.824 91.146 91.146 0 0 0 16.98-8.733 91.12 91.12 0 0 0 15.084-11.706Z" fill="#5578EC"/><path d="M289.073 63.95a19.489 19.489 0 0 0-4.373-6.86 19.446 19.446 0 0 0-32.276 7.475 19.438 19.438 0 0 0 4.585 19.824 91.146 91.146 0 0 0 16.98-8.733 91.12 91.12 0 0 0 15.084-11.706v0Z" stroke="#31333A" stroke-linecap="round" stroke-linejoin="round"/><path d="M259.37 86.426a19.443 19.443 0 0 0 30.553-19.475 100.128 100.128 0 0 1-14.461 11.016 100.174 100.174 0 0 1-16.092 8.459Z" fill="#5578EC"/><path d="M259.37 86.426a19.443 19.443 0 0 0 30.553-19.475 100.128 100.128 0 0 1-14.461 11.016 100.174 100.174 0 0 1-16.092 8.459v0Z" stroke="#31333A" stroke-linecap="round" stroke-linejoin="round"/><path d="M296.731 54.245c-1.447-2.27-5.34-2.35-11.572-.24a56.12 56.12 0 0 0-2.82 1.048c.841.614 1.63 1.295 2.361 2.037 5.626-2.073 9.127-2.303 9.721-1.372.593.931-1.093 4.007-5.348 8.232a91.084 91.084 0 0 1-15.085 11.706 91.084 91.084 0 0 1-16.98 8.733c-5.626 2.073-9.126 2.303-9.72 1.372-.594-.932 1.093-4.008 5.347-8.233a19.39 19.39 0 0 1-.85-3 56.802 56.802 0 0 0-2.14 2.114c-4.545 4.758-6.115 8.322-4.668 10.592 1.447 2.27 5.34 2.35 11.572.24.908-.308 1.852-.66 2.82-1.048a100.174 100.174 0 0 0 16.092-8.459 100.12 100.12 0 0 0 14.461-11.016 56.209 56.209 0 0 0 2.14-2.114c4.546-4.758 6.116-8.322 4.669-10.592Z" fill="#fff"/><path d="M296.731 54.245c-1.447-2.27-5.34-2.35-11.572-.24a56.12 56.12 0 0 0-2.82 1.048c.841.614 1.63 1.295 2.361 2.037 5.626-2.073 9.127-2.303 9.721-1.372.593.931-1.093 4.007-5.348 8.232a91.084 91.084 0 0 1-15.085 11.706 91.084 91.084 0 0 1-16.98 8.733c-5.626 2.073-9.126 2.303-9.72 1.372-.594-.932 1.093-4.008 5.347-8.233a19.39 19.39 0 0 1-.85-3 56.802 56.802 0 0 0-2.14 2.114c-4.545 4.758-6.115 8.322-4.668 10.592 1.447 2.27 5.34 2.35 11.572.24.908-.308 1.852-.66 2.82-1.048a100.174 100.174 0 0 0 16.092-8.459 100.12 100.12 0 0 0 14.461-11.016 56.209 56.209 0 0 0 2.14-2.114c4.546-4.758 6.116-8.322 4.669-10.592Z" stroke="#31333A" stroke-linecap="round" stroke-linejoin="round"/><path d="m308.165 229.786 7.656-9.114-25.239-12.207-5.895 14.643 23.478 6.678Z" fill="#fff"/><path d="m308.165 229.786 7.656-9.114-25.239-12.207-5.895 14.643 23.478 6.678Z" stroke="#31333A" stroke-linecap="round" stroke-linejoin="round"/><path d="m326.038 224.989-10.464-5.409-10.942 10.454s10.301 1.521 5.09 14.407c-5.634 13.93.367 13.69.367 13.69l15.949-33.142Z" fill="#fff"/><path d="m325.821 222.229-20.8 41.635" stroke="#31333A" stroke-linecap="round" stroke-linejoin="round"/><path d="M315.216 230.626a2.984 2.984 0 1 0-.002-5.968 2.984 2.984 0 0 0 .002 5.968Z" fill="#fff" stroke="#31333A" stroke-linecap="round" stroke-linejoin="round"/><path d="m310.905 231.203-7.847 4.48 4.546 3.436 6.636-5.559" fill="#fff"/><path d="m310.905 231.203-7.847 4.48 4.546 3.436 6.636-5.559" stroke="#31333A" stroke-linecap="round" stroke-linejoin="round"/><path d="m326.038 224.989-10.464-5.409-10.942 10.454s10.301 1.521 5.09 14.407c-5.634 13.93.367 13.69.367 13.69l15.949-33.142Z" stroke="#31333A" stroke-linecap="round" stroke-linejoin="round"/><path d="m283.707 157.212-3.585-11.351-23.841 14.752 9.196 12.83 18.23-16.231Z" fill="#fff"/><path d="m283.707 157.212-3.585-11.351-23.841 14.752 9.196 12.83 18.23-16.231Z" stroke="#31333A" stroke-linecap="round" stroke-linejoin="round"/><path d="m289.246 139.554-10.178 5.93 2.952 14.842s6.81-7.877 14.89 3.433c8.734 12.227 11.75 7.034 11.75 7.034l-19.414-31.239Z" fill="#fff"/><path d="m286.8 138.256 23.981 39.889" stroke="#31333A" stroke-linecap="round" stroke-linejoin="round"/><path d="M285.68 153.095a2.984 2.984 0 1 0 0-5.968 2.984 2.984 0 0 0 0 5.968Z" fill="#fff" stroke="#31333A" stroke-linecap="round" stroke-linejoin="round"/><path d="m286.373 155.658-.43 9.026 5.339-1.993-1.132-8.583" fill="#fff"/><path d="m286.373 155.658-.43 9.026 5.339-1.993-1.132-8.583" stroke="#31333A" stroke-linecap="round" stroke-linejoin="round"/><path d="m289.246 139.554-10.178 5.93 2.952 14.842s6.81-7.877 14.89 3.433c8.734 12.227 11.75 7.034 11.75 7.034l-19.414-31.239Z" stroke="#31333A" stroke-linecap="round" stroke-linejoin="round"/><path d="M224.261 100.137c-1.263 15.543-19.031 25.621-19.031 25.621l24.67 2.442-4.174-18.739" fill="#DCDDDD"/><path d="M268.864 152.143c9.297 2.846 14.959 23.098 14.959 23.098l-59.85 36.1c-6.935 6.076-30.016 3.599-24.692-20.194l4.361-68.45 28.748-4.915-2.115 52.499 38.589-18.138Z" fill="#DCDDDD"/><path d="m213.714 135.214 28.061 79.566-4.678-64.211-15.127-8.648" fill="#DCDDDD"/><path d="m213.714 135.214 28.061 79.566-4.678-64.211-15.127-8.648" stroke="#31333A" stroke-linecap="round" stroke-linejoin="round"/><path d="M268.864 152.143c9.297 2.846 14.959 23.098 14.959 23.098l-59.85 36.1c-6.935 6.076-30.016 3.599-24.692-20.194l4.361-68.45 28.748-4.915-2.115 52.499 38.589-18.138Z" stroke="#31333A" stroke-linecap="round" stroke-linejoin="round"/><path d="M203.642 122.697s21.986-3.204 31.109-3.204c9.122 0 19.751 67.649 19.751 67.649l50.818 27.425c.92 8.74-13.382 30.312-13.382 30.312s-47.064-26.741-62.711-38.353a16.631 16.631 0 0 1-6.14-9.186l-11.735-45.048" fill="#DCDDDD"/><path d="M299.243 208.466c3.371 17.027-17.175 38.357-17.175 38.357" stroke="#31333A" stroke-linecap="round" stroke-linejoin="round"/><path d="m232.95 128.2 13.126 63.565 52.521 27.815" stroke="#31333A" stroke-linecap="round" stroke-linejoin="round"/><path d="M203.642 122.697s21.986-3.204 31.109-3.204c9.122 0 19.751 67.649 19.751 67.649l50.818 27.425c.919 8.74-13.382 30.312-13.382 30.312s-47.064-26.741-62.711-38.353a16.631 16.631 0 0 1-6.14-9.186l-11.735-45.048" stroke="#31333A" stroke-linecap="round" stroke-linejoin="round"/><path d="M155.009 112.016s-10.539 4.771-16.774 2.73c-6.235-2.042-5.771-3.045-6.506-2.643-.734.402-2.018 3.195 3.218 4.744 0 0-2.948 2.243-11.069 3.508-6.139.957 1.534 7.277 14.116 4.094a80.836 80.836 0 0 1 21.972-2.666l-4.957-9.767Z" fill="#fff"/><path d="M142.954 114.931c-.322 3.424-1.07 10.406-1.07 10.406l6.815-2.921-4.247-6.308" fill="#DCDDDD"/><path d="M155.009 112.016s-10.539 4.771-16.774 2.73c-6.235-2.042-5.771-3.045-6.506-2.643-.734.402-2.018 3.195 3.218 4.744 0 0-2.948 2.243-11.069 3.508-6.139.957 1.534 7.277 14.116 4.094a80.836 80.836 0 0 1 21.972-2.666l-4.957-9.767Z" stroke="#31333A" stroke-linecap="round" stroke-linejoin="round"/><path d="M142.443 113.737s1.307 10.06 5.924 12.934l31.998-8.063c18.126-4.693 43.897-21.505 43.897-21.505l-28.383-15.33-23.748 21.173-29.688 10.791Z" fill="#fff"/><path d="M192.449 95.852c-2.729 6.902.853 21.93.853 21.93l16.533-5.312-11.344-11.718" fill="#DCDDDD"/><path d="m227.537 120.872-11.029-4.86a8.613 8.613 0 0 0-11.359 4.41 8.625 8.625 0 0 0-.682 4.408l1.306 11.981a8.603 8.603 0 0 0 1.614 4.158 8.611 8.611 0 0 0 12.042 1.861l9.724-7.121a8.623 8.623 0 0 0 3.475-7.885 8.623 8.623 0 0 0-5.091-6.952ZM196.603 171.554l7.94-9.068a8.618 8.618 0 0 0-.806-12.158 8.613 8.613 0 0 0-4.001-1.97l-11.823-2.343a8.62 8.62 0 0 0-8.157 2.776 8.608 8.608 0 0 0-1.675 8.452l3.882 11.41a8.618 8.618 0 0 0 14.64 2.901ZM154.986 180.03l7.94-9.067a8.621 8.621 0 0 0 1.675-8.452 8.627 8.627 0 0 0-6.483-5.677l-11.822-2.342a8.61 8.61 0 0 0-8.157 2.775 8.612 8.612 0 0 0-1.675 8.452l3.882 11.41a8.612 8.612 0 0 0 6.482 5.677 8.62 8.62 0 0 0 8.158-2.776ZM258.838 141.774l-11.029-4.861a8.624 8.624 0 0 0-8.566.933 8.623 8.623 0 0 0-3.475 7.885l1.305 11.982a8.623 8.623 0 0 0 5.091 6.952 8.614 8.614 0 0 0 8.566-.934l9.724-7.121a8.61 8.61 0 0 0 3.475-7.884 8.623 8.623 0 0 0-5.091-6.952ZM223.677 194.628l7.94-9.067a8.621 8.621 0 0 0 1.675-8.453 8.623 8.623 0 0 0-6.483-5.676l-11.822-2.343a8.62 8.62 0 0 0-8.158 2.776 8.62 8.62 0 0 0-1.674 8.452l3.882 11.41a8.618 8.618 0 0 0 14.64 2.901ZM191.04 212.183l7.94-9.068a8.622 8.622 0 0 0 1.675-8.452 8.618 8.618 0 0 0-6.483-5.676l-11.822-2.343a8.616 8.616 0 0 0-9.832 11.228l3.882 11.41a8.623 8.623 0 0 0 6.483 5.676 8.618 8.618 0 0 0 8.157-2.775Z" fill="#fff" stroke="#31333A" stroke-linecap="round" stroke-linejoin="round"/><path d="M142.443 113.737s1.307 10.06 5.924 12.934l31.998-8.063c18.126-4.693 43.897-21.505 43.897-21.505l-28.383-15.33-23.748 21.173-29.688 10.791Z" stroke="#31333A" stroke-linecap="round" stroke-linejoin="round"/><path d="M195.879 81.772a9.327 9.327 0 0 1 4.668-2.128c5.915-.89 26.865-3.314 39.793 8.785a5.099 5.099 0 0 1 1.633 4.769c-1.557 7.335-14.976 25.746-11.721 30.018l-27.322 1.215c.718-7.18-10.313-16.303-11.518-28.197" fill="#fff"/><path d="M223.81 103.459a78.553 78.553 0 0 1-18.513 23.12l20.03.424-.231-11.285" fill="#DCDDDD"/><path d="M195.879 81.772a9.327 9.327 0 0 1 4.668-2.128c5.915-.89 26.865-3.314 39.793 8.785a5.099 5.099 0 0 1 1.633 4.769c-1.557 7.335-14.976 25.746-11.721 30.018l-27.322 1.215c.718-7.18-10.313-16.303-11.518-28.197" stroke="#31333A" stroke-linecap="round" stroke-linejoin="round"/><path d="M207.499 68.129c3.455 0 6.256-3.486 6.256-7.786 0-4.3-2.801-7.785-6.256-7.785-3.454 0-6.255 3.485-6.255 7.785 0 4.3 2.801 7.786 6.255 7.786Z" fill="#31333A"/><path d="m219.829 65.095 3.825 14.7s-2.751 8.02-14.25 9.32c-4.245.48 2.753-9.864 2.753-9.864l-.716-15.62 8.388 1.464Z" fill="#fff"/><path d="m210.283 80.74 6.611-8.905-4.389.357-2.679 3.387" fill="#DCDDDD"/><path d="m219.829 65.095 3.825 14.7s-2.751 8.02-14.25 9.32c-4.245.48 2.753-9.864 2.753-9.864l-.716-15.62 8.388 1.464Z" stroke="#31333A" stroke-linecap="round" stroke-linejoin="round"/><path d="M218.215 70.445c-3.407 5.8-16.908 8.501-11.791-12.241.412-1.67 11.791-1.26 11.791-1.26s3.408 7.7 0 13.5Z" fill="#fff" stroke="#31333A" stroke-linecap="round" stroke-linejoin="round"/><path d="M205.666 57.867c2.07 9.54 12.563 7.673 12.563 7.673a9.17 9.17 0 0 0 2.074 7.96c28.892-13.402-10.407-36.334-14.637-15.633Z" fill="#31333A"/><path d="M213.313 65.757c7.652-6.794 11.414 2.59 4.934 3.85-6.481 1.26-4.934-3.85-4.934-3.85Z" fill="#fff" stroke="#31333A" stroke-linecap="round" stroke-linejoin="round"/><path d="M207.928 63.848c.007.099-.728 2.179-.728 2.179-2.235.329.007 1.621.007 1.621" fill="#fff"/><path d="M207.928 63.848c.007.099-.728 2.179-.728 2.179-2.235.329.007 1.621.007 1.621" stroke="#31333A" stroke-linecap="round" stroke-linejoin="round"/><path d="M205.965 65.194a.574.574 0 0 1-.448-.66l.096-.515a.53.53 0 0 1 .433-.427.578.578 0 0 1 .662.666l-.096.516a.547.547 0 0 1-.081.198.552.552 0 0 1-.352.229.534.534 0 0 1-.214-.007Z" fill="#31333A"/><path d="m204.724 62.325 2.641.48" stroke="#31333A" stroke-linecap="round" stroke-linejoin="round"/><path d="M209.496 65.711a.576.576 0 0 1-.447-.66l.096-.515a.528.528 0 0 1 .433-.427.576.576 0 0 1 .661.666l-.095.516a.547.547 0 0 1-.235.349.53.53 0 0 1-.413.071Z" fill="#31333A"/><path d="m209.124 62.847 2.642.479" stroke="#31333A" stroke-linecap="round" stroke-linejoin="round"/><path d="m207.337 68.614 3.666-.966c1.734 3.626-3.565 4.343-3.666.966Z" fill="#B5B5B6"/><path d="m217.63 66.58 1.234-1.205M218.383 67.043l-.062-1.066" stroke="#31333A" stroke-linecap="round" stroke-linejoin="round"/><path d="m147.823 111.025-5.38 2.712s1.181 10.544 6.076 13.266l3.69-.973s-6.072-9.948-4.386-15.005Z" fill="#DCDDDD" stroke="#31333A" stroke-linecap="round" stroke-linejoin="round"/><path d="m161.574 164.047-18.503 11.026 24.155 40.534 18.502-11.026-24.154-40.534Z" fill="#3351E5"/><path d="M208.596 263.993a18.9 18.9 0 0 1-14.523 2.03 18.886 18.886 0 0 1-11.601-8.969l-27.941-49.467 30.185-17.987 30.21 48.116a18.878 18.878 0 0 1 2.644 6.996 18.881 18.881 0 0 1-3.433 14.256 18.897 18.897 0 0 1-5.541 5.025Z" fill="#31333A"/><path d="M99.502 81.761a59.122 59.122 0 0 0-13.642 90.383 59.121 59.121 0 0 0 63.684 16.125 59.12 59.12 0 0 0 31.014-85.985 59.126 59.126 0 0 0-81.055-20.523Zm52.452 88.019a43.352 43.352 0 0 1-24.423 6.051 43.342 43.342 0 0 1-39.775-53.918 43.337 43.337 0 1 1 64.198 47.867Z" fill="#5578EC"/><path d="M99.502 81.761a59.122 59.122 0 0 0-13.642 90.383 59.121 59.121 0 0 0 63.684 16.125 59.12 59.12 0 0 0 31.014-85.985 59.126 59.126 0 0 0-81.055-20.523v0Zm52.452 88.019a43.352 43.352 0 0 1-24.423 6.051 43.342 43.342 0 0 1-39.775-53.918 43.337 43.337 0 1 1 64.198 47.867v0Z" stroke="#31333A" stroke-linecap="round" stroke-linejoin="round"/><path d="M223.538 77.824a14.43 14.43 0 0 1 5.024 3.612s-13.51 18.312-19.158 7.678c0 0 16.055-6.875 14.134-11.29Z" fill="#fff" stroke="#31333A" stroke-linecap="round" stroke-linejoin="round"/><path d="M209.404 89.114c-8.664 7.785-8.959-5.095-.301-10.28l2.955-1.01.148 2.14s-4.909 6.796-2.802 9.15ZM209.663 94.977c.445-.608.441-1.369-.011-1.7-.451-.33-1.178-.106-1.624.502-.446.608-.441 1.37.01 1.7.452.331 1.179.106 1.625-.502ZM208.902 103.485c.446-.608.441-1.369-.01-1.7-.451-.331-1.179-.106-1.624.502-.446.608-.441 1.369.01 1.7.452.331 1.179.106 1.624-.502Z" fill="#fff" stroke="#31333A" stroke-linecap="round" stroke-linejoin="round"/><path d="m224.523 98.363-3.085 10.027M221.438 126.671l-4.748-2.853M137.092 117.298l-2.144-.45" stroke="#31333A" stroke-linecap="round" stroke-linejoin="round"/><path d="M191.145 145.784s-6.901 3.509-14.208 3.042c-7.307-.468-5.591-.964-6.267-.4-.677.563-1.178 3.852 5.35 4.12 0 0-.842 5.365-11.532 6.807-6.839.924-.4 7.479 16.134.362a2611.974 2611.974 0 0 1 23.078-9.805l-12.555-4.126Z" fill="#fff"/><path d="M188.504 144.131c-3.228 1.97-4.268 8.031-2.333 15.3 1.934 7.269 8.505-5.271 8.505-5.271l-2.675-12.162" fill="#DCDDDD"/><path d="M191.145 145.784s-6.901 3.509-14.208 3.042c-7.307-.468-5.591-.964-6.267-.4-.677.563-1.178 3.852 5.35 4.12 0 0-.842 5.365-11.532 6.807-6.839.924-.4 7.479 16.134.362a2611.974 2611.974 0 0 1 23.078-9.805l-12.555-4.126ZM180.927 152.518l-4.907.027" stroke="#31333A" stroke-linecap="round" stroke-linejoin="round"/><path d="m224.002 100.057-7.312 23.762-31.414 24.091s1.835 8.347 6.241 11.521l39.139-20.745a12.852 12.852 0 0 0 6.13-7.416l8.307-25.47c2.186-5.402.778-13.609-4.753-17.371" fill="#fff"/><path d="m176.436 140.279 7.94-9.067a8.612 8.612 0 0 0 1.675-8.452 8.61 8.61 0 0 0-6.482-5.677l-11.822-2.342a8.62 8.62 0 0 0-8.158 2.775 8.62 8.62 0 0 0-1.674 8.452l3.882 11.41a8.612 8.612 0 0 0 6.482 5.677 8.62 8.62 0 0 0 8.157-2.776ZM280.289 102.023l-11.029-4.86a8.618 8.618 0 0 0-12.041 8.817l1.305 11.982a8.623 8.623 0 0 0 5.091 6.952 8.624 8.624 0 0 0 8.566-.933l9.724-7.122a8.622 8.622 0 0 0 3.475-7.884 8.614 8.614 0 0 0-5.091-6.952ZM201.04 97.974l7.94-9.068a8.612 8.612 0 0 0 1.675-8.452 8.614 8.614 0 0 0-6.482-5.676l-11.823-2.343a8.615 8.615 0 0 0-9.832 11.228l3.883 11.41a8.612 8.612 0 0 0 10.932 5.381 8.611 8.611 0 0 0 3.707-2.48Z" fill="#fff" stroke="#31333A" stroke-linecap="round" stroke-linejoin="round"/><path d="m224.002 100.057-7.312 23.762-31.414 24.091s1.835 8.347 6.241 11.521l39.139-20.745a12.852 12.852 0 0 0 6.13-7.416l8.307-25.47c2.186-5.402.778-13.609-4.753-17.371" stroke="#31333A" stroke-linecap="round" stroke-linejoin="round"/><path d="m190.38 143.627-5.283 2.895s1.543 10.497 6.528 13.049l3.654-1.099s-6.409-9.734-4.899-14.845Z" fill="#DCDDDD" stroke="#31333A" stroke-linecap="round" stroke-linejoin="round"/><path d="M228.563 238.993a5.386 5.386 0 1 0 0-10.772 5.386 5.386 0 0 0 0 10.772ZM280.041 96.765l9.089-3.313M275.496 104.734l9.09-3.313" stroke="#3351E5" stroke-width="2" stroke-linecap="round" stroke-linejoin="round"/></svg>